<svg width="600" height="333" viewBox="0 0 600 333" fill="none" xmlns="http://www.w3.org/2000/svg">
<path d="M56.72 62L53.54 50.84H40.22L37.04 62H30.2L42.44 20.12H51.62L63.86 62H56.72ZM47.12 26.9H46.64L41.48 45.26H52.28L47.12 26.9ZM105.933 20.12H120.393C124.193 20.12 127.133 21.1 129.213 23.06C131.333 25.02 132.393 27.7 132.393 31.1C132.393 33.54 131.793 35.48 130.593 36.92C129.393 38.36 127.773 39.38 125.733 39.98V40.28C128.173 40.84 130.133 41.92 131.613 43.52C133.093 45.08 133.833 47.3 133.833 50.18C133.833 51.9 133.553 53.48 132.993 54.92C132.433 56.36 131.633 57.62 130.593 58.7C129.553 59.74 128.293 60.56 126.813 61.16C125.373 61.72 123.773 62 122.013 62H105.933V20.12ZM119.973 56.84C122.213 56.84 123.933 56.38 125.133 55.46C126.333 54.54 126.933 53.06 126.933 51.02V48.86C126.933 46.82 126.333 45.34 125.133 44.42C123.933 43.5 122.213 43.04 119.973 43.04H112.533V56.84H119.973ZM119.013 38.12C121.133 38.12 122.733 37.72 123.813 36.92C124.933 36.08 125.493 34.7 125.493 32.78V30.62C125.493 28.7 124.933 27.34 123.813 26.54C122.733 25.7 121.133 25.28 119.013 25.28H112.533V38.12H119.013ZM142.09 62V20.12H168.31V25.76H148.81V37.94H167.59V43.58H148.81V56.36H168.31V62H142.09ZM194.266 25.76V62H187.546V25.76H174.406V20.12H207.406V25.76H194.266ZM230.243 25.76V62H223.523V25.76H210.383V20.12H243.383V25.76H230.243ZM250.019 62V20.12H276.239V25.76H256.739V37.94H275.519V43.58H256.739V56.36H276.239V62H250.019ZM292.536 62H285.876V20.12H301.536C305.536 20.12 308.576 21.24 310.656 23.48C312.776 25.72 313.836 28.8 313.836 32.72C313.836 35.92 313.056 38.56 311.496 40.64C309.936 42.72 307.696 44 304.776 44.48L314.436 62H306.996L298.116 45.08H292.536V62ZM300.576 39.68C304.736 39.68 306.816 37.78 306.816 33.98V31.4C306.816 27.6 304.736 25.7 300.576 25.7H292.536V39.68H300.576ZM357.289 62L354.289 20.12H360.169L361.669 44.48L362.329 55.22H362.809L367.549 30.26H374.209L378.949 55.22H379.429L380.089 44.48L381.649 20.12H387.289L384.289 62H375.289L371.029 37.76H370.549L366.289 62H357.289ZM416.486 62L413.306 50.84H399.986L396.806 62H389.966L402.206 20.12H411.386L423.626 62H416.486ZM406.886 26.9H406.406L401.246 45.26H412.046L406.886 26.9ZM439.382 62V46.22L425.462 20.12H432.962L438.302 30.56L442.622 39.5H442.982L447.362 30.56L452.702 20.12H460.022L446.102 46.22V62H439.382ZM518.055 25.76V62H511.335V25.76H498.195V20.12H531.195V25.76H518.055ZM550.672 62.72C548.032 62.72 545.732 62.24 543.772 61.28C541.852 60.28 540.252 58.86 538.972 57.02C537.732 55.18 536.812 52.92 536.212 50.24C535.612 47.56 535.312 44.5 535.312 41.06C535.312 37.66 535.612 34.62 536.212 31.94C536.812 29.22 537.732 26.94 538.972 25.1C540.252 23.26 541.852 21.86 543.772 20.9C545.732 19.9 548.032 19.4 550.672 19.4C553.312 19.4 555.592 19.9 557.512 20.9C559.472 21.86 561.072 23.26 562.312 25.1C563.592 26.94 564.532 29.22 565.132 31.94C565.732 34.62 566.032 37.66 566.032 41.06C566.032 44.5 565.732 47.56 565.132 50.24C564.532 52.92 563.592 55.18 562.312 57.02C561.072 58.86 559.472 60.28 557.512 61.28C555.592 62.24 553.312 62.72 550.672 62.72ZM550.672 57.14C553.672 57.14 555.792 56.02 557.032 53.78C558.272 51.5 558.892 48.42 558.892 44.54V37.52C558.892 33.68 558.272 30.64 557.032 28.4C555.792 26.12 553.672 24.98 550.672 24.98C547.672 24.98 545.552 26.12 544.312 28.4C543.072 30.64 542.452 33.68 542.452 37.52V44.6C542.452 48.44 543.072 51.5 544.312 53.78C545.552 56.02 547.672 57.14 550.672 57.14Z" fill="#07070A"/>
<path d="M16 138.4H64.6C77.8 138.4 87.9333 141.733 95 148.4C102.2 154.933 105.8 163.867 105.8 175.2C105.8 183.2 103.8 189.6 99.8 194.4C95.9333 199.2 90.4 202.667 83.2 204.8V205.8C91.6 207.8 98.2 211.467 103 216.8C107.933 222 110.4 229.4 110.4 239C110.4 244.867 109.4 250.2 107.4 255C105.533 259.667 102.8 263.733 99.2 267.2C95.7333 270.667 91.4667 273.333 86.4 275.2C81.4667 277.067 75.8667 278 69.6 278H16V138.4ZM61.6 259C68.9333 259 74.4 257.667 78 255C81.7333 252.2 83.6 247.467 83.6 240.8V234.2C83.6 227.667 81.7333 223.067 78 220.4C74.4 217.6 68.9333 216.2 61.6 216.2H41.6V259H61.6ZM58.2 198C65.2667 198 70.4667 196.733 73.8 194.2C77.2667 191.667 79 187.267 79 181V174.4C79 168.133 77.2667 163.733 73.8 161.2C70.4667 158.667 65.2667 157.4 58.2 157.4H41.6V198H58.2ZM158.522 138.4V225.4C158.522 230.6 158.655 235.267 158.922 239.4C159.322 243.533 160.189 247.067 161.522 250C162.989 252.8 165.122 255 167.922 256.6C170.855 258.2 174.855 259 179.922 259C184.989 259 188.922 258.2 191.722 256.6C194.655 255 196.789 252.8 198.122 250C199.589 247.067 200.455 243.533 200.722 239.4C201.122 235.267 201.322 230.6 201.322 225.4V138.4H227.522V221.4C227.522 231.267 226.922 239.867 225.722 247.2C224.522 254.533 222.189 260.667 218.722 265.6C215.255 270.533 210.389 274.267 204.122 276.8C197.989 279.2 189.922 280.4 179.922 280.4C169.922 280.4 161.789 279.2 155.522 276.8C149.389 274.267 144.589 270.533 141.122 265.6C137.655 260.667 135.322 254.533 134.122 247.2C132.922 239.867 132.322 231.267 132.322 221.4V138.4H158.522ZM255.444 278V258.4H286.844V158H255.444V138.4H344.244V158H312.844V258.4H344.244V278H255.444ZM379.766 278V138.4H405.966V256.4H467.766V278H379.766ZM494.288 138.4H537.688C555.821 138.4 569.288 144.4 578.088 156.4C587.021 168.4 591.488 185.667 591.488 208.2C591.488 230.867 587.021 248.2 578.088 260.2C569.288 272.067 555.821 278 537.688 278H494.288V138.4ZM535.888 257C545.488 257 552.554 253.867 557.088 247.6C561.754 241.333 564.088 232.2 564.088 220.2V196C564.088 184.133 561.754 175.067 557.088 168.8C552.554 162.533 545.488 159.4 535.888 159.4H520.088V257H535.888Z" fill="#A3A3A3"/>
</svg>
