<svg width="1620" height="93" viewBox="0 0 1620 93" fill="none" xmlns="http://www.w3.org/2000/svg">
<path d="M590.42 65.07H591.42V64.07H590.42V65.07ZM589.79 65.07V64.07H589.119L588.865 64.6914L589.79 65.07ZM588.25 68.01L589.089 68.555L589.089 68.555L588.25 68.01ZM586.01 70.53L586.63 71.3149L586.642 71.3051L586.655 71.2949L586.01 70.53ZM582.86 72.21L582.533 71.2649L582.522 71.2691L582.86 72.21ZM572.5 71.16L571.976 72.0117L571.986 72.0175L572.5 71.16ZM567.88 66.26L567.018 66.7662L567.018 66.7662L567.88 66.26ZM565.01 58.42L564.029 58.6133L564.031 58.6204L564.032 58.6275L565.01 58.42ZM568.65 28.95L569.473 29.5188L569.476 29.5147L568.65 28.95ZM589.37 23.35L589.027 24.2891L589.037 24.2928L589.047 24.2963L589.37 23.35ZM594.27 26.22L593.589 26.9519L593.602 26.964L593.615 26.9757L594.27 26.22ZM597.7 30.63L598.59 30.1732L598.59 30.1732L597.7 30.63ZM599.8 36.37L600.036 37.3418L601.01 37.1054L600.772 36.1325L599.8 36.37ZM590 38.75L589.036 39.0131L589.291 39.9512L590.236 39.7218L590 38.75ZM589.02 35.81L588.072 36.1262L588.081 36.1541L588.092 36.1814L589.02 35.81ZM587.69 33.22L586.89 33.82L586.89 33.82L587.69 33.22ZM585.59 31.47L585.105 32.3442L585.124 32.3547L585.143 32.3644L585.59 31.47ZM576.84 34.06L575.95 33.6052L575.946 33.6128L575.942 33.6204L576.84 34.06ZM576.98 60.8L576.082 61.2402L576.086 61.2472L576.089 61.2542L576.98 60.8ZM588.67 62.27L587.902 61.6298L587.902 61.6298L588.67 62.27ZM590.42 53.31H591.42V52.31H590.42V53.31ZM582.09 53.31H581.09V54.31H582.09V53.31ZM582.09 45.89V44.89H581.09V45.89H582.09ZM599.8 45.89H600.8V44.89H599.8V45.89ZM599.8 72V73H600.8V72H599.8ZM590.42 72H589.42V73H590.42V72ZM590.42 64.07H589.79V66.07H590.42V64.07ZM588.865 64.6914C588.469 65.6598 587.985 66.5841 587.412 67.465L589.089 68.555C589.73 67.5692 590.272 66.5336 590.716 65.4486L588.865 64.6914ZM587.412 67.465C586.861 68.3125 586.181 69.0791 585.366 69.7651L586.655 71.2949C587.613 70.4875 588.426 69.5741 589.089 68.555L587.412 67.465ZM585.391 69.7451C584.603 70.367 583.655 70.8767 582.533 71.265L583.188 73.155C584.492 72.7033 585.644 72.093 586.63 71.3149L585.391 69.7451ZM582.522 71.2691C581.483 71.6429 580.271 71.84 578.87 71.84V73.84C580.456 73.84 581.904 73.6171 583.199 73.1509L582.522 71.2691ZM578.87 71.84C576.654 71.84 574.712 71.3207 573.015 70.3025L571.986 72.0175C574.022 73.2393 576.327 73.84 578.87 73.84V71.84ZM573.024 70.3083C571.365 69.2872 569.934 67.7827 568.743 65.7538L567.018 66.7662C568.347 69.0306 569.996 70.7928 571.976 72.0117L573.024 70.3083ZM568.743 65.7538C567.549 63.7206 566.625 61.2139 565.989 58.2125L564.032 58.6275C564.702 61.7861 565.691 64.506 567.018 66.7662L568.743 65.7538ZM565.992 58.2267C565.4 55.2231 565.1 51.8129 565.1 47.99H563.1C563.1 51.9138 563.408 55.4569 564.029 58.6133L565.992 58.2267ZM565.1 47.99C565.1 39.7814 566.603 33.6688 569.473 29.5188L567.828 28.3812C564.631 33.0045 563.1 39.5852 563.1 47.99H565.1ZM569.476 29.5147C572.287 25.406 576.635 23.3 582.72 23.3V21.3C576.112 21.3 571.081 23.6273 567.825 28.3853L569.476 29.5147ZM582.72 23.3C585.15 23.3 587.246 23.6377 589.027 24.2891L589.714 22.4109C587.668 21.6623 585.331 21.3 582.72 21.3V23.3ZM589.047 24.2963C590.84 24.9085 592.348 25.7964 593.589 26.9519L594.952 25.4881C593.486 24.1236 591.727 23.0982 589.694 22.4036L589.047 24.2963ZM593.615 26.9757C594.914 28.1013 595.98 29.4683 596.811 31.0868L598.59 30.1732C597.648 28.3383 596.426 26.7653 594.925 25.4643L593.615 26.9757ZM596.811 31.0868C597.658 32.7364 598.332 34.575 598.829 36.6075L600.772 36.1325C600.242 33.965 599.516 31.9769 598.59 30.1732L596.811 31.0868ZM599.564 35.3982L589.764 37.7782L590.236 39.7218L600.036 37.3418L599.564 35.3982ZM590.965 38.4869C590.676 37.4256 590.337 36.4093 589.949 35.4386L588.092 36.1814C588.45 37.0774 588.765 38.0211 589.036 39.0131L590.965 38.4869ZM589.969 35.4938C589.612 34.4226 589.121 33.4613 588.49 32.62L586.89 33.82C587.379 34.472 587.775 35.2374 588.072 36.1262L589.969 35.4938ZM588.49 32.62C587.837 31.7483 587.016 31.0645 586.038 30.5756L585.143 32.3644C585.845 32.7154 586.424 33.1983 586.89 33.82L588.49 32.62ZM586.076 30.5958C585.053 30.0277 583.85 29.77 582.51 29.77V31.77C583.598 31.77 584.447 31.979 585.105 32.3442L586.076 30.5958ZM582.51 29.77C581.042 29.77 579.723 30.0734 578.596 30.7276C577.464 31.3843 576.586 32.3597 575.95 33.6052L577.731 34.5148C578.215 33.5669 578.842 32.8974 579.6 32.4574C580.362 32.0149 581.318 31.77 582.51 31.77V29.77ZM575.942 33.6204C574.773 36.0102 574.23 39.2652 574.23 43.3H576.23C576.23 39.4014 576.761 36.4964 577.739 34.4995L575.942 33.6204ZM574.23 43.3V51.28H576.23V43.3H574.23ZM574.23 51.28C574.23 55.3299 574.824 58.6721 576.082 61.2402L577.878 60.3598C576.804 58.1679 576.23 55.1634 576.23 51.28H574.23ZM576.089 61.2542C576.777 62.6023 577.743 63.6489 578.994 64.3498C580.238 65.0468 581.704 65.37 583.35 65.37V63.37C581.963 63.37 580.852 63.0982 579.972 62.6052C579.099 62.1161 578.397 61.3777 577.871 60.3458L576.089 61.2542ZM583.35 65.37C585.93 65.37 588.027 64.6037 589.439 62.9102L587.902 61.6298C586.98 62.7363 585.531 63.37 583.35 63.37V65.37ZM589.439 62.9102C590.784 61.2957 591.42 59.2577 591.42 56.88H589.42C589.42 58.889 588.89 60.4443 587.902 61.6298L589.439 62.9102ZM591.42 56.88V53.31H589.42V56.88H591.42ZM590.42 52.31H582.09V54.31H590.42V52.31ZM583.09 53.31V45.89H581.09V53.31H583.09ZM582.09 46.89H599.8V44.89H582.09V46.89ZM598.8 45.89V72H600.8V45.89H598.8ZM599.8 71H590.42V73H599.8V71ZM591.42 72V65.07H589.42V72H591.42ZM612.723 72H611.723V73H612.723V72ZM612.723 23.14V22.14H611.723V23.14H612.723ZM643.943 23.14H644.943V22.14H643.943V23.14ZM643.943 31.75V32.75H644.943V31.75H643.943ZM623.223 31.75V30.75H622.223V31.75H623.223ZM623.223 42.95H622.223V43.95H623.223V42.95ZM643.243 42.95H644.243V41.95H643.243V42.95ZM643.243 51.56V52.56H644.243V51.56H643.243ZM623.223 51.56V50.56H622.223V51.56H623.223ZM623.223 63.39H622.223V64.39H623.223V63.39ZM643.943 63.39H644.943V62.39H643.943V63.39ZM643.943 72V73H644.943V72H643.943ZM613.723 72V23.14H611.723V72H613.723ZM612.723 24.14H643.943V22.14H612.723V24.14ZM642.943 23.14V31.75H644.943V23.14H642.943ZM643.943 30.75H623.223V32.75H643.943V30.75ZM622.223 31.75V42.95H624.223V31.75H622.223ZM623.223 43.95H643.243V41.95H623.223V43.95ZM642.243 42.95V51.56H644.243V42.95H642.243ZM643.243 50.56H623.223V52.56H643.243V50.56ZM622.223 51.56V63.39H624.223V51.56H622.223ZM623.223 64.39H643.943V62.39H623.223V64.39ZM642.943 63.39V72H644.943V63.39H642.943ZM643.943 71H612.723V73H643.943V71ZM678.846 31.75V30.75H677.846V31.75H678.846ZM678.846 72V73H679.846V72H678.846ZM668.346 72H667.346V73H668.346V72ZM668.346 31.75H669.346V30.75H668.346V31.75ZM654.276 31.75H653.276V32.75H654.276V31.75ZM654.276 23.14V22.14H653.276V23.14H654.276ZM692.916 23.14H693.916V22.14H692.916V23.14ZM692.916 31.75V32.75H693.916V31.75H692.916ZM677.846 31.75V72H679.846V31.75H677.846ZM678.846 71H668.346V73H678.846V71ZM669.346 72V31.75H667.346V72H669.346ZM668.346 30.75H654.276V32.75H668.346V30.75ZM655.276 31.75V23.14H653.276V31.75H655.276ZM654.276 24.14H692.916V22.14H654.276V24.14ZM691.916 23.14V31.75H693.916V23.14H691.916ZM692.916 30.75H678.846V32.75H692.916V30.75ZM753.061 70.81L753.468 69.8968L753.061 70.81ZM745.711 65.28L744.97 64.6085L744.398 65.2396L744.93 65.9047L745.711 65.28ZM751.801 58.56L752.543 57.8891L751.802 57.0702L751.06 57.8885L751.801 58.56ZM757.611 62.9L757.205 63.8138L757.212 63.8171L757.611 62.9ZM769.861 62.62L770.512 63.3793L770.512 63.3793L769.861 62.62ZM770.281 53.87L769.61 54.6115L769.619 54.6193L769.627 54.6268L770.281 53.87ZM765.241 51.98L765.079 52.9668L765.086 52.9679L765.241 51.98ZM760.131 51.14L759.963 52.1258L759.969 52.1268L760.131 51.14ZM750.611 46.31L749.822 46.924L749.827 46.9311L750.611 46.31ZM752.291 26.22L752.931 26.9882L752.938 26.9825L752.291 26.22ZM775.111 24.05L775.496 23.1269L775.496 23.1269L775.111 24.05ZM781.901 28.81L782.646 29.4768L783.231 28.8229L782.659 28.1578L781.901 28.81ZM775.951 35.46L775.209 36.1303L775.955 36.9558L776.696 36.1268L775.951 35.46ZM771.331 32.1L770.903 33.0037L770.913 33.0084L770.923 33.0128L771.331 32.1ZM759.781 40.43L759.148 41.204L759.156 41.2108L759.165 41.2175L759.781 40.43ZM764.961 42.32L765.136 41.3355L765.135 41.3352L764.961 42.32ZM770.071 43.23L769.896 44.2145L769.897 44.2148L770.071 43.23ZM779.241 47.71L779.97 47.0256L779.241 47.71ZM781.271 63.32L782.195 63.703L782.198 63.6952L781.271 63.32ZM777.701 68.36L778.363 69.1098L778.369 69.1044L778.375 69.099L777.701 68.36ZM771.821 71.65L771.499 70.7032L771.493 70.7052L771.821 71.65ZM763.771 71.84C759.772 71.84 756.347 71.1811 753.468 69.8968L752.654 71.7232C755.842 73.1456 759.556 73.84 763.771 73.84V71.84ZM753.468 69.8968C750.564 68.6011 748.248 66.8507 746.492 64.6553L744.93 65.9047C746.907 68.376 749.491 70.3122 752.654 71.7232L753.468 69.8968ZM746.452 65.9515L752.542 59.2315L751.06 57.8885L744.97 64.6085L746.452 65.9515ZM751.059 59.2309C752.912 61.2789 754.96 62.8159 757.205 63.8138L758.017 61.9862C756.062 61.1174 754.236 59.7611 752.543 57.8891L751.059 59.2309ZM757.212 63.8171C759.476 64.8014 761.781 65.3 764.121 65.3V63.3C762.074 63.3 760.039 62.8653 758.01 61.9829L757.212 63.8171ZM764.121 65.3C766.772 65.3 768.956 64.7129 770.512 63.3793L769.21 61.8607C768.153 62.7671 766.51 63.3 764.121 63.3V65.3ZM770.512 63.3793C772.088 62.0279 772.821 60.1117 772.821 57.79H770.821C770.821 59.6683 770.247 60.9721 769.21 61.8607L770.512 63.3793ZM772.821 57.79C772.821 55.858 772.238 54.2392 770.935 53.1132L769.627 54.6268C770.377 55.2741 770.821 56.2687 770.821 57.79H772.821ZM770.952 53.1285C769.751 52.0421 767.832 51.3742 765.396 50.9921L765.086 52.9679C767.41 53.3325 768.851 53.9246 769.61 54.6115L770.952 53.1285ZM765.403 50.9932L760.293 50.1532L759.969 52.1268L765.079 52.9668L765.403 50.9932ZM760.299 50.1542C756.056 49.432 753.149 47.9022 751.395 45.6889L749.827 46.9311C751.993 49.6645 755.433 51.3547 759.963 52.1258L760.299 50.1542ZM751.4 45.6961C749.594 43.3735 748.671 40.5404 748.671 37.14H746.671C746.671 40.9263 747.708 44.2065 749.822 46.9239L751.4 45.6961ZM748.671 37.14C748.671 32.6656 750.12 29.3307 752.931 26.9882L751.651 25.4518C748.302 28.2426 746.671 32.1878 746.671 37.14H748.671ZM752.938 26.9825C755.78 24.5715 759.836 23.3 765.241 23.3V21.3C759.539 21.3 754.962 22.6419 751.644 25.4575L752.938 26.9825ZM765.241 23.3C768.92 23.3 772.074 23.868 774.726 24.9731L775.496 23.1269C772.548 21.8986 769.122 21.3 765.241 21.3V23.3ZM774.726 24.9731C777.404 26.0886 779.532 27.5899 781.143 29.4622L782.659 28.1578C780.817 26.0168 778.418 24.3448 775.496 23.1269L774.726 24.9731ZM781.156 28.1432L775.206 34.7932L776.696 36.1268L782.646 29.4768L781.156 28.1432ZM776.693 34.7897C775.294 33.2403 773.64 32.0375 771.739 31.1872L770.923 33.0128C772.569 33.7492 773.995 34.7864 775.209 36.1303L776.693 34.7897ZM771.759 31.1963C769.834 30.2845 767.678 29.84 765.311 29.84V31.84C767.424 31.84 769.281 32.2355 770.903 33.0037L771.759 31.1963ZM765.311 29.84C762.843 29.84 760.806 30.3431 759.374 31.5199C757.904 32.7276 757.241 34.5018 757.241 36.65H759.241C759.241 34.9249 759.756 33.7941 760.643 33.0651C761.568 32.3052 763.066 31.84 765.311 31.84V29.84ZM757.241 36.65C757.241 38.543 757.829 40.1251 759.148 41.204L760.414 39.656C759.68 39.0549 759.241 38.117 759.241 36.65H757.241ZM759.165 41.2175C760.432 42.2092 762.353 42.8752 764.787 43.3048L765.135 41.3352C762.809 40.9248 761.277 40.3308 760.397 39.6425L759.165 41.2175ZM764.786 43.3045L769.896 44.2145L770.246 42.2455L765.136 41.3355L764.786 43.3045ZM769.897 44.2148C773.712 44.888 776.55 46.305 778.512 48.3944L779.97 47.0256C777.638 44.5417 774.363 42.972 770.245 42.2452L769.897 44.2148ZM778.512 48.3944C780.446 50.4545 781.461 53.2682 781.461 56.95H783.461C783.461 52.8851 782.329 49.5388 779.97 47.0256L778.512 48.3944ZM781.461 56.95C781.461 59.1186 781.085 61.1134 780.344 62.9448L782.198 63.6952C783.043 61.6066 783.461 59.3547 783.461 56.95H781.461ZM780.347 62.937C779.612 64.7098 778.51 66.2695 777.027 67.621L778.375 69.099C780.066 67.5571 781.343 65.7569 782.195 63.703L780.347 62.937ZM777.039 67.6102C775.567 68.9095 773.728 69.9455 771.499 70.7032L772.143 72.5968C774.581 71.7678 776.662 70.6105 778.363 69.1098L777.039 67.6102ZM771.493 70.7052C769.336 71.4536 766.768 71.84 763.771 71.84V73.84C766.934 73.84 769.732 73.4331 772.149 72.5948L771.493 70.7052ZM815.264 31.75V30.75H814.264V31.75H815.264ZM815.264 72V73H816.264V72H815.264ZM804.764 72H803.764V73H804.764V72ZM804.764 31.75H805.764V30.75H804.764V31.75ZM790.694 31.75H789.694V32.75H790.694V31.75ZM790.694 23.14V22.14H789.694V23.14H790.694ZM829.334 23.14H830.334V22.14H829.334V23.14ZM829.334 31.75V32.75H830.334V31.75H829.334ZM814.264 31.75V72H816.264V31.75H814.264ZM815.264 71H804.764V73H815.264V71ZM805.764 72V31.75H803.764V72H805.764ZM804.764 30.75H790.694V32.75H804.764V30.75ZM791.694 31.75V23.14H789.694V31.75H791.694ZM790.694 24.14H829.334V22.14H790.694V24.14ZM828.334 23.14V31.75H830.334V23.14H828.334ZM829.334 30.75H815.264V32.75H829.334V30.75ZM864.936 72L863.969 72.2534L864.165 73H864.936V72ZM861.856 60.24L862.824 59.9866L862.628 59.24H861.856V60.24ZM848.486 60.24V59.24H847.71L847.518 59.992L848.486 60.24ZM845.476 72V73H846.253L846.445 72.248L845.476 72ZM834.836 72L833.871 71.7386L833.53 73H834.836V72ZM848.066 23.14V22.14H847.301L847.101 22.8786L848.066 23.14ZM862.906 23.14L863.872 22.8786L863.672 22.14H862.906V23.14ZM876.136 72V73H877.443L877.102 71.7386L876.136 72ZM855.486 33.29L856.455 33.0406L856.261 32.29H855.486V33.29ZM854.926 33.29V32.29H854.151L853.958 33.0406L854.926 33.29ZM850.166 51.77L849.198 51.5206L848.876 52.77H850.166V51.77ZM860.246 51.77V52.77H861.537L861.215 51.5206L860.246 51.77ZM865.904 71.7466L862.824 59.9866L860.889 60.4934L863.969 72.2534L865.904 71.7466ZM861.856 59.24H848.486V61.24H861.856V59.24ZM847.518 59.992L844.508 71.752L846.445 72.248L849.455 60.488L847.518 59.992ZM845.476 71H834.836V73H845.476V71ZM835.802 72.2614L849.032 23.4014L847.101 22.8786L833.871 71.7386L835.802 72.2614ZM848.066 24.14H862.906V22.14H848.066V24.14ZM861.941 23.4014L875.171 72.2614L877.102 71.7386L863.872 22.8786L861.941 23.4014ZM876.136 71H864.936V73H876.136V71ZM855.486 32.29H854.926V34.29H855.486V32.29ZM853.958 33.0406L849.198 51.5206L851.135 52.0194L855.895 33.5394L853.958 33.0406ZM850.166 52.77H860.246V50.77H850.166V52.77ZM861.215 51.5206L856.455 33.0406L854.518 33.5394L859.278 52.0194L861.215 51.5206ZM895.639 72V73H896.639V72H895.639ZM885.279 72H884.279V73H885.279V72ZM885.279 23.14V22.14H884.279V23.14H885.279ZM910.549 24.26L910.178 25.1885L910.188 25.1925L910.198 25.1963L910.549 24.26ZM915.239 27.34L914.507 28.0214L914.513 28.0281L914.52 28.0346L915.239 27.34ZM916.919 47.57L916.063 47.0531L916.063 47.0531L916.919 47.57ZM910.549 52.47L910.272 51.5091L909.125 51.8395L909.651 52.9108L910.549 52.47ZM920.139 72V73H921.744L921.037 71.5592L920.139 72ZM908.659 72L907.748 72.4117L908.013 73H908.659V72ZM900.469 53.87L901.38 53.4583L901.115 52.87H900.469V53.87ZM895.639 53.87V52.87H894.639V53.87H895.639ZM906.769 44.35L906.079 43.6259L906.071 43.6343L906.062 43.6429L906.769 44.35ZM906.769 33.01L906.062 33.7171L906.071 33.7257L906.079 33.7341L906.769 33.01ZM895.639 31.61V30.61H894.639V31.61H895.639ZM895.639 45.75H894.639V46.75H895.639V45.75ZM895.639 71H885.279V73H895.639V71ZM886.279 72V23.14H884.279V72H886.279ZM885.279 24.14H904.179V22.14H885.279V24.14ZM904.179 24.14C906.455 24.14 908.449 24.4969 910.178 25.1885L910.92 23.3315C908.916 22.5298 906.663 22.14 904.179 22.14V24.14ZM910.198 25.1963C911.931 25.8463 913.361 26.7901 914.507 28.0214L915.971 26.6586C914.597 25.1832 912.9 24.0737 910.9 23.3237L910.198 25.1963ZM914.52 28.0346C915.717 29.2745 916.623 30.7782 917.233 32.5631L919.125 31.9169C918.428 29.8751 917.375 28.1121 915.958 26.6454L914.52 28.0346ZM917.233 32.5631C917.845 34.3559 918.159 36.3909 918.159 38.68H920.159C920.159 36.2091 919.82 33.9508 919.125 31.9169L917.233 32.5631ZM918.159 38.68C918.159 41.9869 917.445 44.7638 916.063 47.0531L917.775 48.0869C919.379 45.4295 920.159 42.2797 920.159 38.68H918.159ZM916.063 47.0531C914.699 49.3128 912.781 50.7862 910.272 51.5091L910.826 53.4309C913.824 52.5672 916.153 50.7739 917.775 48.0869L916.063 47.0531ZM909.651 52.9108L919.241 72.4408L921.037 71.5592L911.447 52.0292L909.651 52.9108ZM920.139 71H908.659V73H920.139V71ZM909.57 71.5883L901.38 53.4583L899.558 54.2817L907.748 72.4117L909.57 71.5883ZM900.469 52.87H895.639V54.87H900.469V52.87ZM894.639 53.87V72H896.639V53.87H894.639ZM901.659 46.75C904.19 46.75 906.247 46.2862 907.476 45.0571L906.062 43.6429C905.424 44.2805 904.075 44.75 901.659 44.75V46.75ZM907.459 45.0741C908.727 43.8663 909.239 41.9942 909.239 39.73H907.239C907.239 41.7591 906.771 42.9671 906.079 43.6259L907.459 45.0741ZM909.239 39.73V37.63H907.239V39.73H909.239ZM909.239 37.63C909.239 35.3658 908.727 33.4937 907.459 32.2859L906.079 33.7341C906.771 34.3929 907.239 35.6009 907.239 37.63H909.239ZM907.476 32.3029C906.247 31.0738 904.19 30.61 901.659 30.61V32.61C904.075 32.61 905.424 33.0795 906.062 33.7171L907.476 32.3029ZM901.659 30.61H895.639V32.61H901.659V30.61ZM894.639 31.61V45.75H896.639V31.61H894.639ZM895.639 46.75H901.659V44.75H895.639V46.75ZM951.682 31.75V30.75H950.682V31.75H951.682ZM951.682 72V73H952.682V72H951.682ZM941.182 72H940.182V73H941.182V72ZM941.182 31.75H942.182V30.75H941.182V31.75ZM927.112 31.75H926.112V32.75H927.112V31.75ZM927.112 23.14V22.14H926.112V23.14H927.112ZM965.752 23.14H966.752V22.14H965.752V23.14ZM965.752 31.75V32.75H966.752V31.75H965.752ZM950.682 31.75V72H952.682V31.75H950.682ZM951.682 71H941.182V73H951.682V71ZM942.182 72V31.75H940.182V72H942.182ZM941.182 30.75H927.112V32.75H941.182V30.75ZM928.112 31.75V23.14H926.112V31.75H928.112ZM927.112 24.14H965.752V22.14H927.112V24.14ZM964.752 23.14V31.75H966.752V23.14H964.752ZM965.752 30.75H951.682V32.75H965.752V30.75ZM976.504 72H975.504V73H976.504V72ZM976.504 23.14V22.14H975.504V23.14H976.504ZM1007.72 23.14H1008.72V22.14H1007.72V23.14ZM1007.72 31.75V32.75H1008.72V31.75H1007.72ZM987.004 31.75V30.75H986.004V31.75H987.004ZM987.004 42.95H986.004V43.95H987.004V42.95ZM1007.02 42.95H1008.02V41.95H1007.02V42.95ZM1007.02 51.56V52.56H1008.02V51.56H1007.02ZM987.004 51.56V50.56H986.004V51.56H987.004ZM987.004 63.39H986.004V64.39H987.004V63.39ZM1007.72 63.39H1008.72V62.39H1007.72V63.39ZM1007.72 72V73H1008.72V72H1007.72ZM977.504 72V23.14H975.504V72H977.504ZM976.504 24.14H1007.72V22.14H976.504V24.14ZM1006.72 23.14V31.75H1008.72V23.14H1006.72ZM1007.72 30.75H987.004V32.75H1007.72V30.75ZM986.004 31.75V42.95H988.004V31.75H986.004ZM987.004 43.95H1007.02V41.95H987.004V43.95ZM1006.02 42.95V51.56H1008.02V42.95H1006.02ZM1007.02 50.56H987.004V52.56H1007.02V50.56ZM986.004 51.56V63.39H988.004V51.56H986.004ZM987.004 64.39H1007.72V62.39H987.004V64.39ZM1006.72 63.39V72H1008.72V63.39H1006.72ZM1007.72 71H976.504V73H1007.72V71ZM1020.86 23.14V22.14H1019.86V23.14H1020.86ZM1051.24 29.44L1052.03 28.8372L1052.03 28.8372L1051.24 29.44ZM1051.24 65.7L1050.44 65.0972L1051.24 65.7ZM1020.86 72H1019.86V73H1020.86V72ZM1042.77 60.73L1041.96 60.1452L1041.96 60.1452L1042.77 60.73ZM1042.77 34.41L1041.96 34.9948L1041.96 34.9948L1042.77 34.41ZM1031.22 31.4V30.4H1030.22V31.4H1031.22ZM1031.22 63.74H1030.22V64.74H1031.22V63.74ZM1020.86 24.14H1036.61V22.14H1020.86V24.14ZM1036.61 24.14C1042.96 24.14 1047.5 26.155 1050.44 30.0428L1052.03 28.8372C1048.63 24.325 1043.41 22.14 1036.61 22.14V24.14ZM1050.44 30.0428C1053.43 34.0018 1055 39.7977 1055 47.57H1057C1057 39.5689 1055.39 33.2782 1052.03 28.8372L1050.44 30.0428ZM1055 47.57C1055 55.3423 1053.43 61.1382 1050.44 65.0972L1052.03 66.3028C1055.39 61.8618 1057 55.5711 1057 47.57H1055ZM1050.44 65.0972C1047.5 68.985 1042.96 71 1036.61 71V73C1043.41 73 1048.63 70.815 1052.03 66.3028L1050.44 65.0972ZM1036.61 71H1020.86V73H1036.61V71ZM1021.86 72V23.14H1019.86V72H1021.86ZM1035.91 64.74C1039.26 64.74 1041.89 63.6503 1043.58 61.3148L1041.96 60.1452C1040.75 61.823 1038.81 62.74 1035.91 62.74V64.74ZM1043.58 61.3148C1045.2 59.0677 1045.94 55.9093 1045.94 51.98H1043.94C1043.94 55.704 1043.23 58.379 1041.96 60.1452L1043.58 61.3148ZM1045.94 51.98V43.09H1043.94V51.98H1045.94ZM1045.94 43.09C1045.94 39.2042 1045.2 36.0706 1043.58 33.8252L1041.96 34.9948C1043.23 36.7627 1043.94 39.4158 1043.94 43.09H1045.94ZM1043.58 33.8252C1041.89 31.4897 1039.26 30.4 1035.91 30.4V32.4C1038.81 32.4 1040.75 33.317 1041.96 34.9948L1043.58 33.8252ZM1035.91 30.4H1031.22V32.4H1035.91V30.4ZM1030.22 31.4V63.74H1032.22V31.4H1030.22ZM1031.22 64.74H1035.91V62.74H1031.22V64.74Z" fill="white"/>
<line x1="558" y1="92.5" x2="1061" y2="92.5" stroke="white"/>
</svg>
