<svg width="972" height="106" viewBox="0 0 972 106" fill="none" xmlns="http://www.w3.org/2000/svg">
<path d="M34.9352 20.3201H25.2952V18.1801L29.8552 14.2001C30.5752 13.5601 31.1285 12.9534 31.5152 12.3801C31.9152 11.8067 32.1152 11.2001 32.1152 10.5601V10.3401C32.1152 9.60673 31.9152 9.04673 31.5152 8.66007C31.1152 8.26007 30.5352 8.06007 29.7752 8.06007C29.0018 8.06007 28.4018 8.26673 27.9752 8.68007C27.5618 9.0934 27.2618 9.62007 27.0752 10.2601L25.1152 9.52007C25.2485 9.08007 25.4418 8.66007 25.6952 8.26007C25.9485 7.84673 26.2685 7.48007 26.6552 7.16007C27.0552 6.84007 27.5218 6.58673 28.0552 6.40007C28.6018 6.2134 29.2285 6.12007 29.9352 6.12007C30.6552 6.12007 31.2952 6.22673 31.8552 6.44007C32.4285 6.64007 32.9085 6.92007 33.2952 7.28007C33.6818 7.64007 33.9752 8.0734 34.1752 8.58007C34.3752 9.0734 34.4752 9.62007 34.4752 10.2201C34.4752 10.7801 34.3885 11.3001 34.2152 11.7801C34.0552 12.2467 33.8218 12.7001 33.5152 13.1401C33.2218 13.5667 32.8685 13.9801 32.4552 14.3801C32.0418 14.7801 31.5885 15.1801 31.0952 15.5801L27.7152 18.4201H34.9352V20.3201ZM42.0273 20.5601C41.1473 20.5601 40.3807 20.4001 39.7273 20.0801C39.0873 19.7467 38.554 19.2734 38.1273 18.6601C37.714 18.0467 37.4073 17.2934 37.2073 16.4001C37.0073 15.5067 36.9073 14.4867 36.9073 13.3401C36.9073 12.2067 37.0073 11.1934 37.2073 10.3001C37.4073 9.3934 37.714 8.6334 38.1273 8.02007C38.554 7.40673 39.0873 6.94007 39.7273 6.62007C40.3807 6.28673 41.1473 6.12007 42.0273 6.12007C42.9073 6.12007 43.6673 6.28673 44.3073 6.62007C44.9607 6.94007 45.494 7.40673 45.9073 8.02007C46.334 8.6334 46.6473 9.3934 46.8473 10.3001C47.0473 11.1934 47.1473 12.2067 47.1473 13.3401C47.1473 14.4867 47.0473 15.5067 46.8473 16.4001C46.6473 17.2934 46.334 18.0467 45.9073 18.6601C45.494 19.2734 44.9607 19.7467 44.3073 20.0801C43.6673 20.4001 42.9073 20.5601 42.0273 20.5601ZM42.0273 18.7201C43.0407 18.7201 43.7607 18.3467 44.1873 17.6001C44.6273 16.8401 44.8473 15.8201 44.8473 14.5401V12.1401C44.8473 10.8601 44.6273 9.84673 44.1873 9.10007C43.7607 8.34007 43.0407 7.96007 42.0273 7.96007C41.5207 7.96007 41.0873 8.06007 40.7273 8.26007C40.3673 8.44673 40.074 8.72673 39.8473 9.10007C39.6207 9.46007 39.454 9.90007 39.3473 10.4201C39.254 10.9267 39.2073 11.5001 39.2073 12.1401V14.5401C39.2073 15.1801 39.254 15.7601 39.3473 16.2801C39.454 16.7867 39.6207 17.2267 39.8473 17.6001C40.074 17.9601 40.3673 18.2401 40.7273 18.4401C41.0873 18.6267 41.5207 18.7201 42.0273 18.7201ZM42.0273 14.5201C41.5607 14.5201 41.234 14.4267 41.0473 14.2401C40.874 14.0534 40.7873 13.8267 40.7873 13.5601V13.1201C40.7873 12.8534 40.874 12.6267 41.0473 12.4401C41.234 12.2534 41.5607 12.1601 42.0273 12.1601C42.494 12.1601 42.814 12.2534 42.9873 12.4401C43.174 12.6267 43.2673 12.8534 43.2673 13.1201V13.5601C43.2673 13.8267 43.174 14.0534 42.9873 14.2401C42.814 14.4267 42.494 14.5201 42.0273 14.5201ZM69.0317 10.0001H71.2317L66.2317 22.3201C65.9651 22.9867 65.6117 23.4867 65.1717 23.8201C64.7451 24.1534 64.1251 24.3201 63.3117 24.3201H61.5717V22.5601H64.0117L64.9517 20.1801L60.7917 10.0001H63.0717L64.7117 14.3201L65.9917 17.8601H66.1117L67.3917 14.3201L69.0317 10.0001ZM78.2239 20.5601C77.4372 20.5601 76.7306 20.4334 76.1039 20.1801C75.4772 19.9267 74.9506 19.5667 74.5239 19.1001C74.0972 18.6334 73.7706 18.0734 73.5439 17.4201C73.3172 16.7534 73.2039 16.0067 73.2039 15.1801C73.2039 14.3534 73.3172 13.6067 73.5439 12.9401C73.7839 12.2734 74.1106 11.7067 74.5239 11.2401C74.9506 10.7601 75.4639 10.3934 76.0639 10.1401C76.6639 9.88674 77.3306 9.76007 78.0639 9.76007C78.7839 9.76007 79.4372 9.88674 80.0239 10.1401C80.6106 10.3801 81.1106 10.7267 81.5239 11.1801C81.9372 11.6334 82.2506 12.1734 82.4639 12.8001C82.6906 13.4267 82.8039 14.1201 82.8039 14.8801V15.7001H75.4039V16.0401C75.4039 16.8534 75.6572 17.5201 76.1639 18.0401C76.6706 18.5467 77.3706 18.8001 78.2639 18.8001C78.9306 18.8001 79.4972 18.6601 79.9639 18.3801C80.4439 18.0867 80.8306 17.7001 81.1239 17.2201L82.4839 18.4201C82.1372 19.0201 81.6039 19.5267 80.8839 19.9401C80.1772 20.3534 79.2906 20.5601 78.2239 20.5601ZM78.0639 11.4201C77.6772 11.4201 77.3172 11.4867 76.9839 11.6201C76.6639 11.7534 76.3839 11.9467 76.1439 12.2001C75.9172 12.4401 75.7372 12.7267 75.6039 13.0601C75.4706 13.3934 75.4039 13.7601 75.4039 14.1601V14.3001H80.5839V14.1001C80.5839 13.2867 80.3506 12.6401 79.8839 12.1601C79.4306 11.6667 78.8239 11.4201 78.0639 11.4201ZM93.8361 20.3201C93.2094 20.3201 92.7361 20.1601 92.4161 19.8401C92.1094 19.5201 91.9228 19.1001 91.8561 18.5801H91.7561C91.5561 19.2067 91.1894 19.6934 90.6561 20.0401C90.1361 20.3867 89.4694 20.5601 88.6561 20.5601C87.6028 20.5601 86.7628 20.2867 86.1361 19.7401C85.5094 19.1801 85.1961 18.4134 85.1961 17.4401C85.1961 16.4401 85.5628 15.6801 86.2961 15.1601C87.0428 14.6267 88.1828 14.3601 89.7161 14.3601H91.6961V13.5601C91.6961 12.1601 90.9561 11.4601 89.4761 11.4601C88.8094 11.4601 88.2694 11.5934 87.8561 11.8601C87.4428 12.1134 87.0961 12.4534 86.8161 12.8801L85.5161 11.8201C85.8094 11.2601 86.3028 10.7801 86.9961 10.3801C87.6894 9.96674 88.5828 9.76007 89.6761 9.76007C90.9828 9.76007 92.0094 10.0734 92.7561 10.7001C93.5028 11.3267 93.8761 12.2334 93.8761 13.4201V18.6001H95.1761V20.3201H93.8361ZM89.2761 18.9601C89.9828 18.9601 90.5628 18.8001 91.0161 18.4801C91.4694 18.1601 91.6961 17.7467 91.6961 17.2401V15.7401H89.7561C88.1828 15.7401 87.3961 16.2134 87.3961 17.1601V17.5601C87.3961 18.0267 87.5628 18.3801 87.8961 18.6201C88.2294 18.8467 88.6894 18.9601 89.2761 18.9601ZM97.5083 18.5601H100.248V11.7601H97.5083V10.0001H102.428V12.7401H102.548C102.642 12.3801 102.775 12.0334 102.948 11.7001C103.122 11.3667 103.342 11.0801 103.608 10.8401C103.875 10.5867 104.202 10.3867 104.588 10.2401C104.975 10.0801 105.428 10.0001 105.948 10.0001H107.188V12.0801H105.148C104.348 12.0801 103.695 12.3201 103.188 12.8001C102.682 13.2667 102.428 13.9001 102.428 14.7001V18.5601H106.168V20.3201H97.5083V18.5601ZM114 20.5601C112.88 20.5601 111.914 20.3801 111.1 20.0201C110.3 19.6601 109.654 19.1801 109.16 18.5801L110.5 17.3801C110.954 17.8734 111.46 18.2534 112.02 18.5201C112.594 18.7734 113.267 18.9001 114.04 18.9001C114.747 18.9001 115.314 18.7801 115.74 18.5401C116.18 18.3001 116.4 17.9267 116.4 17.4201C116.4 17.2067 116.36 17.0267 116.28 16.8801C116.2 16.7334 116.087 16.6134 115.94 16.5201C115.794 16.4267 115.62 16.3534 115.42 16.3001C115.234 16.2467 115.034 16.2067 114.82 16.1801L113.18 15.9201C112.78 15.8667 112.374 15.7801 111.96 15.6601C111.547 15.5401 111.174 15.3734 110.84 15.1601C110.52 14.9334 110.254 14.6467 110.04 14.3001C109.84 13.9534 109.74 13.5134 109.74 12.9801C109.74 11.9267 110.14 11.1267 110.94 10.5801C111.754 10.0334 112.82 9.76007 114.14 9.76007C115.1 9.76007 115.927 9.90673 116.62 10.2001C117.327 10.4801 117.914 10.8734 118.38 11.3801L117.16 12.6601C116.894 12.3534 116.514 12.0734 116.02 11.8201C115.527 11.5534 114.874 11.4201 114.06 11.4201C112.607 11.4201 111.88 11.8801 111.88 12.8001C111.88 13.2401 112.034 13.5467 112.34 13.7201C112.66 13.8801 113.034 13.9867 113.46 14.0401L115.1 14.3001C115.514 14.3667 115.92 14.4534 116.32 14.5601C116.734 14.6667 117.1 14.8334 117.42 15.0601C117.754 15.2734 118.02 15.5534 118.22 15.9001C118.434 16.2467 118.54 16.6867 118.54 17.2201C118.54 18.2601 118.134 19.0801 117.32 19.6801C116.52 20.2667 115.414 20.5601 114 20.5601ZM6.05078 44.5601C5.29078 44.5601 4.60411 44.4334 3.99078 44.1801C3.39078 43.9267 2.87745 43.5667 2.45078 43.1001C2.03745 42.6334 1.71745 42.0667 1.49078 41.4001C1.26411 40.7334 1.15078 39.9867 1.15078 39.1601C1.15078 38.3334 1.26411 37.5867 1.49078 36.9201C1.71745 36.2534 2.03745 35.6867 2.45078 35.2201C2.87745 34.7534 3.39078 34.3934 3.99078 34.1401C4.60411 33.8867 5.29078 33.7601 6.05078 33.7601C6.81078 33.7601 7.49078 33.8867 8.09078 34.1401C8.70411 34.3934 9.21745 34.7534 9.63078 35.2201C10.0574 35.6867 10.3841 36.2534 10.6108 36.9201C10.8374 37.5867 10.9508 38.3334 10.9508 39.1601C10.9508 39.9867 10.8374 40.7334 10.6108 41.4001C10.3841 42.0667 10.0574 42.6334 9.63078 43.1001C9.21745 43.5667 8.70411 43.9267 8.09078 44.1801C7.49078 44.4334 6.81078 44.5601 6.05078 44.5601ZM6.05078 42.8401C6.85078 42.8401 7.48411 42.6001 7.95078 42.1201C8.43078 41.6267 8.67078 40.9001 8.67078 39.9401V38.3801C8.67078 37.4201 8.43078 36.7001 7.95078 36.2201C7.48411 35.7267 6.85078 35.4801 6.05078 35.4801C5.25078 35.4801 4.61078 35.7267 4.13078 36.2201C3.66411 36.7001 3.43078 37.4201 3.43078 38.3801V39.9401C3.43078 40.9001 3.66411 41.6267 4.13078 42.1201C4.61078 42.6001 5.25078 42.8401 6.05078 42.8401ZM13.603 42.5601H16.903V35.7601H13.403V34.0001H16.903V32.1401C16.903 31.3667 17.1163 30.7401 17.543 30.2601C17.9696 29.7667 18.6363 29.5201 19.543 29.5201H23.023V31.2801H19.083V34.0001H23.023V35.7601H19.083V42.5601H22.563V44.3201H13.603V42.5601ZM42.2473 44.5601C41.4607 44.5601 40.754 44.4334 40.1273 44.1801C39.5007 43.9267 38.974 43.5667 38.5473 43.1001C38.1207 42.6334 37.794 42.0734 37.5673 41.4201C37.3407 40.7534 37.2273 40.0067 37.2273 39.1801C37.2273 38.3534 37.3407 37.6067 37.5673 36.9401C37.8073 36.2734 38.134 35.7067 38.5473 35.2401C38.974 34.7601 39.4873 34.3934 40.0873 34.1401C40.6873 33.8867 41.354 33.7601 42.0873 33.7601C42.8073 33.7601 43.4607 33.8867 44.0473 34.1401C44.634 34.3801 45.134 34.7267 45.5473 35.1801C45.9607 35.6334 46.274 36.1734 46.4873 36.8001C46.714 37.4267 46.8273 38.1201 46.8273 38.8801V39.7001H39.4273V40.0401C39.4273 40.8534 39.6807 41.5201 40.1873 42.0401C40.694 42.5467 41.394 42.8001 42.2873 42.8001C42.954 42.8001 43.5207 42.6601 43.9873 42.3801C44.4673 42.0867 44.854 41.7001 45.1473 41.2201L46.5073 42.4201C46.1607 43.0201 45.6273 43.5267 44.9073 43.9401C44.2007 44.3534 43.314 44.5601 42.2473 44.5601ZM42.0873 35.4201C41.7007 35.4201 41.3407 35.4867 41.0073 35.6201C40.6873 35.7534 40.4073 35.9467 40.1673 36.2001C39.9407 36.4401 39.7607 36.7267 39.6273 37.0601C39.494 37.3934 39.4273 37.7601 39.4273 38.1601V38.3001H44.6073V38.1001C44.6073 37.2867 44.374 36.6401 43.9073 36.1601C43.454 35.6667 42.8473 35.4201 42.0873 35.4201ZM48.9195 44.3201L52.7595 39.0801L49.0795 34.0001H51.6195L52.9795 35.9601L54.0595 37.5201H54.1795L55.2395 35.9601L56.5995 34.0001H58.9595L55.2595 39.0001L59.1395 44.3201H56.5795L55.0395 42.1001L53.9795 40.5801H53.8595L52.8195 42.1001L51.2995 44.3201H48.9195ZM61.5917 34.0001H63.7717V35.7601H63.8917C64.1984 35.1334 64.6051 34.6467 65.1117 34.3001C65.6184 33.9401 66.2517 33.7601 67.0117 33.7601C68.2251 33.7601 69.1917 34.2134 69.9117 35.1201C70.6317 36.0267 70.9917 37.3734 70.9917 39.1601C70.9917 40.9467 70.6317 42.2934 69.9117 43.2001C69.1917 44.1067 68.2251 44.5601 67.0117 44.5601C66.2517 44.5601 65.6184 44.3867 65.1117 44.0401C64.6051 43.6801 64.1984 43.1867 63.8917 42.5601H63.7717V48.3201H61.5917V34.0001ZM66.1117 42.7801C66.9384 42.7801 67.5717 42.5267 68.0117 42.0201C68.4651 41.5134 68.6917 40.8401 68.6917 40.0001V38.3201C68.6917 37.4801 68.4651 36.8067 68.0117 36.3001C67.5717 35.7934 66.9384 35.5401 66.1117 35.5401C65.7917 35.5401 65.4917 35.5801 65.2117 35.6601C64.9317 35.7401 64.6851 35.8601 64.4717 36.0201C64.2584 36.1801 64.0851 36.3801 63.9517 36.6201C63.8317 36.8467 63.7717 37.1201 63.7717 37.4401V40.8801C63.7717 41.2001 63.8317 41.4801 63.9517 41.7201C64.0851 41.9467 64.2584 42.1401 64.4717 42.3001C64.6851 42.4601 64.9317 42.5801 65.2117 42.6601C65.4917 42.7401 65.7917 42.7801 66.1117 42.7801ZM78.2239 44.5601C77.4372 44.5601 76.7306 44.4334 76.1039 44.1801C75.4772 43.9267 74.9506 43.5667 74.5239 43.1001C74.0972 42.6334 73.7706 42.0734 73.5439 41.4201C73.3172 40.7534 73.2039 40.0067 73.2039 39.1801C73.2039 38.3534 73.3172 37.6067 73.5439 36.9401C73.7839 36.2734 74.1106 35.7067 74.5239 35.2401C74.9506 34.7601 75.4639 34.3934 76.0639 34.1401C76.6639 33.8867 77.3306 33.7601 78.0639 33.7601C78.7839 33.7601 79.4372 33.8867 80.0239 34.1401C80.6106 34.3801 81.1106 34.7267 81.5239 35.1801C81.9372 35.6334 82.2506 36.1734 82.4639 36.8001C82.6906 37.4267 82.8039 38.1201 82.8039 38.8801V39.7001H75.4039V40.0401C75.4039 40.8534 75.6572 41.5201 76.1639 42.0401C76.6706 42.5467 77.3706 42.8001 78.2639 42.8001C78.9306 42.8001 79.4972 42.6601 79.9639 42.3801C80.4439 42.0867 80.8306 41.7001 81.1239 41.2201L82.4839 42.4201C82.1372 43.0201 81.6039 43.5267 80.8839 43.9401C80.1772 44.3534 79.2906 44.5601 78.2239 44.5601ZM78.0639 35.4201C77.6772 35.4201 77.3172 35.4867 76.9839 35.6201C76.6639 35.7534 76.3839 35.9467 76.1439 36.2001C75.9172 36.4401 75.7372 36.7267 75.6039 37.0601C75.4706 37.3934 75.4039 37.7601 75.4039 38.1601V38.3001H80.5839V38.1001C80.5839 37.2867 80.3506 36.6401 79.8839 36.1601C79.4306 35.6667 78.8239 35.4201 78.0639 35.4201ZM85.5161 42.5601H88.2561V35.7601H85.5161V34.0001H90.4361V36.7401H90.5561C90.6494 36.3801 90.7828 36.0334 90.9561 35.7001C91.1294 35.3667 91.3494 35.0801 91.6161 34.8401C91.8828 34.5867 92.2094 34.3867 92.5961 34.2401C92.9828 34.0801 93.4361 34.0001 93.9561 34.0001H95.1961V36.0801H93.1561C92.3561 36.0801 91.7028 36.3201 91.1961 36.8001C90.6894 37.2667 90.4361 37.9001 90.4361 38.7001V42.5601H94.1761V44.3201H85.5161V42.5601ZM102.628 32.1201C102.068 32.1201 101.675 32.0067 101.448 31.7801C101.235 31.5534 101.128 31.2734 101.128 30.9401V30.5201C101.128 30.1867 101.235 29.9067 101.448 29.6801C101.675 29.4534 102.062 29.3401 102.608 29.3401C103.168 29.3401 103.555 29.4534 103.768 29.6801C103.995 29.9067 104.108 30.1867 104.108 30.5201V30.9401C104.108 31.2734 103.995 31.5534 103.768 31.7801C103.555 32.0067 103.175 32.1201 102.628 32.1201ZM98.0083 42.5601H101.528V35.7601H98.0083V34.0001H103.708V42.5601H107.008V44.3201H98.0083V42.5601ZM114.2 44.5601C113.414 44.5601 112.707 44.4334 112.08 44.1801C111.454 43.9267 110.927 43.5667 110.5 43.1001C110.074 42.6334 109.747 42.0734 109.52 41.4201C109.294 40.7534 109.18 40.0067 109.18 39.1801C109.18 38.3534 109.294 37.6067 109.52 36.9401C109.76 36.2734 110.087 35.7067 110.5 35.2401C110.927 34.7601 111.44 34.3934 112.04 34.1401C112.64 33.8867 113.307 33.7601 114.04 33.7601C114.76 33.7601 115.414 33.8867 116 34.1401C116.587 34.3801 117.087 34.7267 117.5 35.1801C117.914 35.6334 118.227 36.1734 118.44 36.8001C118.667 37.4267 118.78 38.1201 118.78 38.8801V39.7001H111.38V40.0401C111.38 40.8534 111.634 41.5201 112.14 42.0401C112.647 42.5467 113.347 42.8001 114.24 42.8001C114.907 42.8001 115.474 42.6601 115.94 42.3801C116.42 42.0867 116.807 41.7001 117.1 41.2201L118.46 42.4201C118.114 43.0201 117.58 43.5267 116.86 43.9401C116.154 44.3534 115.267 44.5601 114.2 44.5601ZM114.04 35.4201C113.654 35.4201 113.294 35.4867 112.96 35.6201C112.64 35.7534 112.36 35.9467 112.12 36.2001C111.894 36.4401 111.714 36.7267 111.58 37.0601C111.447 37.3934 111.38 37.7601 111.38 38.1601V38.3001H116.56V38.1001C116.56 37.2867 116.327 36.6401 115.86 36.1601C115.407 35.6667 114.8 35.4201 114.04 35.4201ZM121.653 44.3201V34.0001H123.833V35.7601H123.933C124.039 35.4934 124.173 35.2401 124.333 35.0001C124.506 34.7467 124.713 34.5334 124.953 34.3601C125.193 34.1734 125.473 34.0267 125.793 33.9201C126.113 33.8134 126.486 33.7601 126.913 33.7601C127.953 33.7601 128.793 34.1001 129.433 34.7801C130.073 35.4601 130.393 36.4267 130.393 37.6801V44.3201H128.213V38.0001C128.213 36.3601 127.499 35.5401 126.073 35.5401C125.793 35.5401 125.519 35.5801 125.253 35.6601C124.986 35.7267 124.746 35.8334 124.533 35.9801C124.319 36.1267 124.146 36.3134 124.013 36.5401C123.893 36.7667 123.833 37.0267 123.833 37.3201V44.3201H121.653ZM138.345 44.5601C137.572 44.5601 136.878 44.4334 136.265 44.1801C135.665 43.9267 135.152 43.5667 134.725 43.1001C134.312 42.6334 133.992 42.0667 133.765 41.4001C133.552 40.7334 133.445 39.9867 133.445 39.1601C133.445 38.3334 133.552 37.5867 133.765 36.9201C133.992 36.2534 134.312 35.6867 134.725 35.2201C135.152 34.7534 135.665 34.3934 136.265 34.1401C136.878 33.8867 137.565 33.7601 138.325 33.7601C139.392 33.7601 140.245 33.9867 140.885 34.4401C141.538 34.8934 142.025 35.4801 142.345 36.2001L140.645 37.1201C140.458 36.6401 140.172 36.2601 139.785 35.9801C139.412 35.7001 138.925 35.5601 138.325 35.5601C137.498 35.5601 136.858 35.8134 136.405 36.3201C135.952 36.8134 135.725 37.4734 135.725 38.3001V40.0201C135.725 40.8334 135.952 41.4934 136.405 42.0001C136.858 42.5067 137.512 42.7601 138.365 42.7601C139.005 42.7601 139.525 42.6134 139.925 42.3201C140.338 42.0267 140.665 41.6267 140.905 41.1201L142.505 42.1001C142.172 42.8201 141.665 43.4134 140.985 43.8801C140.305 44.3334 139.425 44.5601 138.345 44.5601ZM150.177 44.5601C149.39 44.5601 148.684 44.4334 148.057 44.1801C147.43 43.9267 146.904 43.5667 146.477 43.1001C146.05 42.6334 145.724 42.0734 145.497 41.4201C145.27 40.7534 145.157 40.0067 145.157 39.1801C145.157 38.3534 145.27 37.6067 145.497 36.9401C145.737 36.2734 146.064 35.7067 146.477 35.2401C146.904 34.7601 147.417 34.3934 148.017 34.1401C148.617 33.8867 149.284 33.7601 150.017 33.7601C150.737 33.7601 151.39 33.8867 151.977 34.1401C152.564 34.3801 153.064 34.7267 153.477 35.1801C153.89 35.6334 154.204 36.1734 154.417 36.8001C154.644 37.4267 154.757 38.1201 154.757 38.8801V39.7001H147.357V40.0401C147.357 40.8534 147.61 41.5201 148.117 42.0401C148.624 42.5467 149.324 42.8001 150.217 42.8001C150.884 42.8001 151.45 42.6601 151.917 42.3801C152.397 42.0867 152.784 41.7001 153.077 41.2201L154.437 42.4201C154.09 43.0201 153.557 43.5267 152.837 43.9401C152.13 44.3534 151.244 44.5601 150.177 44.5601ZM150.017 35.4201C149.63 35.4201 149.27 35.4867 148.937 35.6201C148.617 35.7534 148.337 35.9467 148.097 36.2001C147.87 36.4401 147.69 36.7267 147.557 37.0601C147.424 37.3934 147.357 37.7601 147.357 38.1601V38.3001H152.537V38.1001C152.537 37.2867 152.304 36.6401 151.837 36.1601C151.384 35.6667 150.777 35.4201 150.017 35.4201Z" fill="#121212"/>
<path d="M303.439 20.5601C301.666 20.5601 300.346 19.9334 299.479 18.6801C298.626 17.4267 298.199 15.6467 298.199 13.3401C298.199 11.0334 298.626 9.2534 299.479 8.00007C300.346 6.74673 301.666 6.12007 303.439 6.12007C304.119 6.12007 304.706 6.2134 305.199 6.40007C305.706 6.5734 306.139 6.82007 306.499 7.14007C306.859 7.44673 307.159 7.8134 307.399 8.24007C307.652 8.6534 307.859 9.10007 308.019 9.58007L305.999 10.2601C305.892 9.94007 305.772 9.64007 305.639 9.36007C305.506 9.08007 305.339 8.84007 305.139 8.64007C304.939 8.44007 304.699 8.28007 304.419 8.16007C304.152 8.04007 303.819 7.98007 303.419 7.98007C302.432 7.98007 301.712 8.36007 301.259 9.12007C300.806 9.86673 300.579 10.8801 300.579 12.1601V14.5201C300.579 15.8001 300.806 16.8201 301.259 17.5801C301.712 18.3267 302.432 18.7001 303.419 18.7001C303.819 18.7001 304.152 18.6401 304.419 18.5201C304.699 18.4001 304.939 18.2401 305.139 18.0401C305.339 17.8401 305.506 17.6001 305.639 17.3201C305.772 17.0401 305.892 16.7401 305.999 16.4201L308.019 17.1001C307.859 17.5801 307.652 18.0334 307.399 18.4601C307.159 18.8734 306.859 19.2401 306.499 19.5601C306.139 19.8667 305.706 20.1134 305.199 20.3001C304.706 20.4734 304.119 20.5601 303.439 20.5601ZM315.251 20.5601C314.465 20.5601 313.758 20.4334 313.131 20.1801C312.505 19.9267 311.978 19.5667 311.551 19.1001C311.125 18.6334 310.798 18.0734 310.571 17.4201C310.345 16.7534 310.231 16.0067 310.231 15.1801C310.231 14.3534 310.345 13.6067 310.571 12.9401C310.811 12.2734 311.138 11.7067 311.551 11.2401C311.978 10.7601 312.491 10.3934 313.091 10.1401C313.691 9.88674 314.358 9.76007 315.091 9.76007C315.811 9.76007 316.465 9.88674 317.051 10.1401C317.638 10.3801 318.138 10.7267 318.551 11.1801C318.965 11.6334 319.278 12.1734 319.491 12.8001C319.718 13.4267 319.831 14.1201 319.831 14.8801V15.7001H312.431V16.0401C312.431 16.8534 312.685 17.5201 313.191 18.0401C313.698 18.5467 314.398 18.8001 315.291 18.8001C315.958 18.8001 316.525 18.6601 316.991 18.3801C317.471 18.0867 317.858 17.7001 318.151 17.2201L319.511 18.4201C319.165 19.0201 318.631 19.5267 317.911 19.9401C317.205 20.3534 316.318 20.5601 315.251 20.5601ZM315.091 11.4201C314.705 11.4201 314.345 11.4867 314.011 11.6201C313.691 11.7534 313.411 11.9467 313.171 12.2001C312.945 12.4401 312.765 12.7267 312.631 13.0601C312.498 13.3934 312.431 13.7601 312.431 14.1601V14.3001H317.611V14.1001C317.611 13.2867 317.378 12.6401 316.911 12.1601C316.458 11.6667 315.851 11.4201 315.091 11.4201ZM322.543 18.5601H325.283V11.7601H322.543V10.0001H327.463V12.7401H327.583C327.677 12.3801 327.81 12.0334 327.983 11.7001C328.157 11.3667 328.377 11.0801 328.643 10.8401C328.91 10.5867 329.237 10.3867 329.623 10.2401C330.01 10.0801 330.463 10.0001 330.983 10.0001H332.223V12.0801H330.183C329.383 12.0801 328.73 12.3201 328.223 12.8001C327.717 13.2667 327.463 13.9001 327.463 14.7001V18.5601H331.203V20.3201H322.543V18.5601ZM339.636 20.3201C338.729 20.3201 338.062 20.0801 337.636 19.6001C337.209 19.1067 336.996 18.4734 336.996 17.7001V11.7601H333.816V10.0001H336.076C336.462 10.0001 336.736 9.92673 336.896 9.78007C337.056 9.62007 337.136 9.34007 337.136 8.94007V6.36007H339.176V10.0001H343.576V11.7601H339.176V18.5601H343.576V20.3201H339.636ZM351.648 8.12007C351.088 8.12007 350.694 8.00673 350.468 7.78007C350.254 7.5534 350.148 7.2734 350.148 6.94007V6.52007C350.148 6.18673 350.254 5.90673 350.468 5.68007C350.694 5.4534 351.081 5.34007 351.628 5.34007C352.188 5.34007 352.574 5.4534 352.788 5.68007C353.014 5.90673 353.128 6.18673 353.128 6.52007V6.94007C353.128 7.2734 353.014 7.5534 352.788 7.78007C352.574 8.00673 352.194 8.12007 351.648 8.12007ZM347.028 18.5601H350.548V11.7601H347.028V10.0001H352.728V18.5601H356.028V20.3201H347.028V18.5601ZM358.56 18.5601H361.86V11.7601H358.36V10.0001H361.86V8.14007C361.86 7.36673 362.073 6.74007 362.5 6.26007C362.927 5.76673 363.593 5.52007 364.5 5.52007H367.98V7.28007H364.04V10.0001H367.98V11.7601H364.04V18.5601H367.52V20.3201H358.56V18.5601ZM375.632 8.12007C375.072 8.12007 374.679 8.00673 374.452 7.78007C374.239 7.5534 374.132 7.2734 374.132 6.94007V6.52007C374.132 6.18673 374.239 5.90673 374.452 5.68007C374.679 5.4534 375.066 5.34007 375.612 5.34007C376.172 5.34007 376.559 5.4534 376.772 5.68007C376.999 5.90673 377.112 6.18673 377.112 6.52007V6.94007C377.112 7.2734 376.999 7.5534 376.772 7.78007C376.559 8.00673 376.179 8.12007 375.632 8.12007ZM371.012 18.5601H374.532V11.7601H371.012V10.0001H376.712V18.5601H380.012V20.3201H371.012V18.5601ZM387.204 20.5601C386.418 20.5601 385.711 20.4334 385.084 20.1801C384.458 19.9267 383.931 19.5667 383.504 19.1001C383.078 18.6334 382.751 18.0734 382.524 17.4201C382.298 16.7534 382.184 16.0067 382.184 15.1801C382.184 14.3534 382.298 13.6067 382.524 12.9401C382.764 12.2734 383.091 11.7067 383.504 11.2401C383.931 10.7601 384.444 10.3934 385.044 10.1401C385.644 9.88674 386.311 9.76007 387.044 9.76007C387.764 9.76007 388.418 9.88674 389.004 10.1401C389.591 10.3801 390.091 10.7267 390.504 11.1801C390.918 11.6334 391.231 12.1734 391.444 12.8001C391.671 13.4267 391.784 14.1201 391.784 14.8801V15.7001H384.384V16.0401C384.384 16.8534 384.638 17.5201 385.144 18.0401C385.651 18.5467 386.351 18.8001 387.244 18.8001C387.911 18.8001 388.478 18.6601 388.944 18.3801C389.424 18.0867 389.811 17.7001 390.104 17.2201L391.464 18.4201C391.118 19.0201 390.584 19.5267 389.864 19.9401C389.158 20.3534 388.271 20.5601 387.204 20.5601ZM387.044 11.4201C386.658 11.4201 386.298 11.4867 385.964 11.6201C385.644 11.7534 385.364 11.9467 385.124 12.2001C384.898 12.4401 384.718 12.7267 384.584 13.0601C384.451 13.3934 384.384 13.7601 384.384 14.1601V14.3001H389.564V14.1001C389.564 13.2867 389.331 12.6401 388.864 12.1601C388.411 11.6667 387.804 11.4201 387.044 11.4201ZM401.217 18.5601H401.097C400.79 19.1867 400.383 19.6801 399.877 20.0401C399.37 20.3867 398.737 20.5601 397.977 20.5601C396.763 20.5601 395.797 20.1067 395.077 19.2001C394.357 18.2934 393.997 16.9467 393.997 15.1601C393.997 13.3734 394.357 12.0267 395.077 11.1201C395.797 10.2134 396.763 9.76007 397.977 9.76007C398.737 9.76007 399.37 9.94007 399.877 10.3001C400.383 10.6467 400.79 11.1334 401.097 11.7601H401.217V5.52007H403.397V20.3201H401.217V18.5601ZM398.877 18.7801C399.197 18.7801 399.497 18.7401 399.777 18.6601C400.057 18.5801 400.303 18.4601 400.517 18.3001C400.73 18.1401 400.897 17.9467 401.017 17.7201C401.15 17.4801 401.217 17.2001 401.217 16.8801V13.4401C401.217 13.1201 401.15 12.8467 401.017 12.6201C400.897 12.3801 400.73 12.1801 400.517 12.0201C400.303 11.8601 400.057 11.7401 399.777 11.6601C399.497 11.5801 399.197 11.5401 398.877 11.5401C398.05 11.5401 397.41 11.7934 396.957 12.3001C396.517 12.8067 396.297 13.4801 396.297 14.3201V16.0001C396.297 16.8401 396.517 17.5134 396.957 18.0201C397.41 18.5267 398.05 18.7801 398.877 18.7801ZM297.423 44.5601C296.65 44.5601 295.956 44.4334 295.343 44.1801C294.743 43.9267 294.23 43.5667 293.803 43.1001C293.39 42.6334 293.07 42.0667 292.843 41.4001C292.63 40.7334 292.523 39.9867 292.523 39.1601C292.523 38.3334 292.63 37.5867 292.843 36.9201C293.07 36.2534 293.39 35.6867 293.803 35.2201C294.23 34.7534 294.743 34.3934 295.343 34.1401C295.956 33.8867 296.643 33.7601 297.403 33.7601C298.47 33.7601 299.323 33.9867 299.963 34.4401C300.616 34.8934 301.103 35.4801 301.423 36.2001L299.723 37.1201C299.536 36.6401 299.25 36.2601 298.863 35.9801C298.49 35.7001 298.003 35.5601 297.403 35.5601C296.576 35.5601 295.936 35.8134 295.483 36.3201C295.03 36.8134 294.803 37.4734 294.803 38.3001V40.0201C294.803 40.8334 295.03 41.4934 295.483 42.0001C295.936 42.5067 296.59 42.7601 297.443 42.7601C298.083 42.7601 298.603 42.6134 299.003 42.3201C299.416 42.0267 299.743 41.6267 299.983 41.1201L301.583 42.1001C301.25 42.8201 300.743 43.4134 300.063 43.8801C299.383 44.3334 298.503 44.5601 297.423 44.5601ZM309.035 44.5601C308.275 44.5601 307.588 44.4334 306.975 44.1801C306.375 43.9267 305.862 43.5667 305.435 43.1001C305.022 42.6334 304.702 42.0667 304.475 41.4001C304.248 40.7334 304.135 39.9867 304.135 39.1601C304.135 38.3334 304.248 37.5867 304.475 36.9201C304.702 36.2534 305.022 35.6867 305.435 35.2201C305.862 34.7534 306.375 34.3934 306.975 34.1401C307.588 33.8867 308.275 33.7601 309.035 33.7601C309.795 33.7601 310.475 33.8867 311.075 34.1401C311.688 34.3934 312.202 34.7534 312.615 35.2201C313.042 35.6867 313.368 36.2534 313.595 36.9201C313.822 37.5867 313.935 38.3334 313.935 39.1601C313.935 39.9867 313.822 40.7334 313.595 41.4001C313.368 42.0667 313.042 42.6334 312.615 43.1001C312.202 43.5667 311.688 43.9267 311.075 44.1801C310.475 44.4334 309.795 44.5601 309.035 44.5601ZM309.035 42.8401C309.835 42.8401 310.468 42.6001 310.935 42.1201C311.415 41.6267 311.655 40.9001 311.655 39.9401V38.3801C311.655 37.4201 311.415 36.7001 310.935 36.2201C310.468 35.7267 309.835 35.4801 309.035 35.4801C308.235 35.4801 307.595 35.7267 307.115 36.2201C306.648 36.7001 306.415 37.4201 306.415 38.3801V39.9401C306.415 40.9001 306.648 41.6267 307.115 42.1201C307.595 42.6001 308.235 42.8401 309.035 42.8401ZM316.707 44.3201V34.0001H318.887V35.7601H318.987C319.094 35.4934 319.227 35.2401 319.387 35.0001C319.561 34.7467 319.767 34.5334 320.007 34.3601C320.247 34.1734 320.527 34.0267 320.847 33.9201C321.167 33.8134 321.541 33.7601 321.967 33.7601C323.007 33.7601 323.847 34.1001 324.487 34.7801C325.127 35.4601 325.447 36.4267 325.447 37.6801V44.3201H323.267V38.0001C323.267 36.3601 322.554 35.5401 321.127 35.5401C320.847 35.5401 320.574 35.5801 320.307 35.6601C320.041 35.7267 319.801 35.8334 319.587 35.9801C319.374 36.1267 319.201 36.3134 319.067 36.5401C318.947 36.7667 318.887 37.0267 318.887 37.3201V44.3201H316.707ZM333.64 44.3201C332.733 44.3201 332.066 44.0801 331.64 43.6001C331.213 43.1067 331 42.4734 331 41.7001V35.7601H327.82V34.0001H330.08C330.466 34.0001 330.74 33.9267 330.9 33.7801C331.06 33.6201 331.14 33.3401 331.14 32.9401V30.3601H333.18V34.0001H337.58V35.7601H333.18V42.5601H337.58V44.3201H333.64ZM340.532 42.5601H343.272V35.7601H340.532V34.0001H345.452V36.7401H345.572C345.665 36.3801 345.798 36.0334 345.972 35.7001C346.145 35.3667 346.365 35.0801 346.632 34.8401C346.898 34.5867 347.225 34.3867 347.612 34.2401C347.998 34.0801 348.452 34.0001 348.972 34.0001H350.212V36.0801H348.172C347.372 36.0801 346.718 36.3201 346.212 36.8001C345.705 37.2667 345.452 37.9001 345.452 38.7001V42.5601H349.192V44.3201H340.532V42.5601ZM360.844 44.3201C360.217 44.3201 359.744 44.1601 359.424 43.8401C359.117 43.5201 358.931 43.1001 358.864 42.5801H358.764C358.564 43.2067 358.197 43.6934 357.664 44.0401C357.144 44.3867 356.477 44.5601 355.664 44.5601C354.611 44.5601 353.771 44.2867 353.144 43.7401C352.517 43.1801 352.204 42.4134 352.204 41.4401C352.204 40.4401 352.571 39.6801 353.304 39.1601C354.051 38.6267 355.191 38.3601 356.724 38.3601H358.704V37.5601C358.704 36.1601 357.964 35.4601 356.484 35.4601C355.817 35.4601 355.277 35.5934 354.864 35.8601C354.451 36.1134 354.104 36.4534 353.824 36.8801L352.524 35.8201C352.817 35.2601 353.311 34.7801 354.004 34.3801C354.697 33.9667 355.591 33.7601 356.684 33.7601C357.991 33.7601 359.017 34.0734 359.764 34.7001C360.511 35.3267 360.884 36.2334 360.884 37.4201V42.6001H362.184V44.3201H360.844ZM356.284 42.9601C356.991 42.9601 357.571 42.8001 358.024 42.4801C358.477 42.1601 358.704 41.7467 358.704 41.2401V39.7401H356.764C355.191 39.7401 354.404 40.2134 354.404 41.1601V41.5601C354.404 42.0267 354.571 42.3801 354.904 42.6201C355.237 42.8467 355.697 42.9601 356.284 42.9601ZM369.376 44.5601C368.603 44.5601 367.909 44.4334 367.296 44.1801C366.696 43.9267 366.183 43.5667 365.756 43.1001C365.343 42.6334 365.023 42.0667 364.796 41.4001C364.583 40.7334 364.476 39.9867 364.476 39.1601C364.476 38.3334 364.583 37.5867 364.796 36.9201C365.023 36.2534 365.343 35.6867 365.756 35.2201C366.183 34.7534 366.696 34.3934 367.296 34.1401C367.909 33.8867 368.596 33.7601 369.356 33.7601C370.423 33.7601 371.276 33.9867 371.916 34.4401C372.569 34.8934 373.056 35.4801 373.376 36.2001L371.676 37.1201C371.489 36.6401 371.203 36.2601 370.816 35.9801C370.443 35.7001 369.956 35.5601 369.356 35.5601C368.529 35.5601 367.889 35.8134 367.436 36.3201C366.983 36.8134 366.756 37.4734 366.756 38.3001V40.0201C366.756 40.8334 366.983 41.4934 367.436 42.0001C367.889 42.5067 368.543 42.7601 369.396 42.7601C370.036 42.7601 370.556 42.6134 370.956 42.3201C371.369 42.0267 371.696 41.6267 371.936 41.1201L373.536 42.1001C373.203 42.8201 372.696 43.4134 372.016 43.8801C371.336 44.3334 370.456 44.5601 369.376 44.5601ZM381.608 44.3201C380.702 44.3201 380.035 44.0801 379.608 43.6001C379.182 43.1067 378.968 42.4734 378.968 41.7001V35.7601H375.788V34.0001H378.048C378.435 34.0001 378.708 33.9267 378.868 33.7801C379.028 33.6201 379.108 33.3401 379.108 32.9401V30.3601H381.148V34.0001H385.548V35.7601H381.148V42.5601H385.548V44.3201H381.608ZM392.98 44.5601C392.22 44.5601 391.534 44.4334 390.92 44.1801C390.32 43.9267 389.807 43.5667 389.38 43.1001C388.967 42.6334 388.647 42.0667 388.42 41.4001C388.194 40.7334 388.08 39.9867 388.08 39.1601C388.08 38.3334 388.194 37.5867 388.42 36.9201C388.647 36.2534 388.967 35.6867 389.38 35.2201C389.807 34.7534 390.32 34.3934 390.92 34.1401C391.534 33.8867 392.22 33.7601 392.98 33.7601C393.74 33.7601 394.42 33.8867 395.02 34.1401C395.634 34.3934 396.147 34.7534 396.56 35.2201C396.987 35.6867 397.314 36.2534 397.54 36.9201C397.767 37.5867 397.88 38.3334 397.88 39.1601C397.88 39.9867 397.767 40.7334 397.54 41.4001C397.314 42.0667 396.987 42.6334 396.56 43.1001C396.147 43.5667 395.634 43.9267 395.02 44.1801C394.42 44.4334 393.74 44.5601 392.98 44.5601ZM392.98 42.8401C393.78 42.8401 394.414 42.6001 394.88 42.1201C395.36 41.6267 395.6 40.9001 395.6 39.9401V38.3801C395.6 37.4201 395.36 36.7001 394.88 36.2201C394.414 35.7267 393.78 35.4801 392.98 35.4801C392.18 35.4801 391.54 35.7267 391.06 36.2201C390.594 36.7001 390.36 37.4201 390.36 38.3801V39.9401C390.36 40.9001 390.594 41.6267 391.06 42.1201C391.54 42.6001 392.18 42.8401 392.98 42.8401ZM400.493 42.5601H403.233V35.7601H400.493V34.0001H405.413V36.7401H405.533C405.626 36.3801 405.759 36.0334 405.933 35.7001C406.106 35.3667 406.326 35.0801 406.593 34.8401C406.859 34.5867 407.186 34.3867 407.573 34.2401C407.959 34.0801 408.413 34.0001 408.933 34.0001H410.173V36.0801H408.133C407.333 36.0801 406.679 36.3201 406.173 36.8001C405.666 37.2667 405.413 37.9001 405.413 38.7001V42.5601H409.153V44.3201H400.493V42.5601ZM416.985 44.5601C415.865 44.5601 414.898 44.3801 414.085 44.0201C413.285 43.6601 412.638 43.1801 412.145 42.5801L413.485 41.3801C413.938 41.8734 414.445 42.2534 415.005 42.5201C415.578 42.7734 416.252 42.9001 417.025 42.9001C417.732 42.9001 418.298 42.7801 418.725 42.5401C419.165 42.3001 419.385 41.9267 419.385 41.4201C419.385 41.2067 419.345 41.0267 419.265 40.8801C419.185 40.7334 419.072 40.6134 418.925 40.5201C418.778 40.4267 418.605 40.3534 418.405 40.3001C418.218 40.2467 418.018 40.2067 417.805 40.1801L416.165 39.9201C415.765 39.8667 415.358 39.7801 414.945 39.6601C414.532 39.5401 414.158 39.3734 413.825 39.1601C413.505 38.9334 413.238 38.6467 413.025 38.3001C412.825 37.9534 412.725 37.5134 412.725 36.9801C412.725 35.9267 413.125 35.1267 413.925 34.5801C414.738 34.0334 415.805 33.7601 417.125 33.7601C418.085 33.7601 418.912 33.9067 419.605 34.2001C420.312 34.4801 420.898 34.8734 421.365 35.3801L420.145 36.6601C419.878 36.3534 419.498 36.0734 419.005 35.8201C418.512 35.5534 417.858 35.4201 417.045 35.4201C415.592 35.4201 414.865 35.8801 414.865 36.8001C414.865 37.2401 415.018 37.5467 415.325 37.7201C415.645 37.8801 416.018 37.9867 416.445 38.0401L418.085 38.3001C418.498 38.3667 418.905 38.4534 419.305 38.5601C419.718 38.6667 420.085 38.8334 420.405 39.0601C420.738 39.2734 421.005 39.5534 421.205 39.9001C421.418 40.2467 421.525 40.6867 421.525 41.2201C421.525 42.2601 421.118 43.0801 420.305 43.6801C419.505 44.2667 418.398 44.5601 416.985 44.5601Z" fill="#121212"/>
<path d="M571.151 23.8201H568.591C567.685 23.8201 567.031 23.5801 566.631 23.1001C566.231 22.6334 566.031 22.0134 566.031 21.2401V20.4801C565.325 20.3601 564.711 20.1134 564.191 19.7401C563.671 19.3667 563.238 18.8801 562.891 18.2801C562.558 17.6667 562.311 16.9467 562.151 16.1201C561.991 15.2934 561.911 14.3667 561.911 13.3401C561.911 12.2067 562.011 11.1934 562.211 10.3001C562.411 9.3934 562.718 8.6334 563.131 8.02007C563.558 7.40673 564.091 6.94007 564.731 6.62007C565.385 6.28673 566.151 6.12007 567.031 6.12007C567.911 6.12007 568.671 6.28673 569.311 6.62007C569.965 6.94007 570.498 7.40673 570.911 8.02007C571.338 8.6334 571.651 9.3934 571.851 10.3001C572.051 11.1934 572.151 12.2067 572.151 13.3401C572.151 15.3934 571.818 17.0401 571.151 18.2801C570.485 19.5201 569.445 20.2534 568.031 20.4801V22.1401H571.151V23.8201ZM567.031 18.7001C568.031 18.7001 568.738 18.3267 569.151 17.5801C569.565 16.8201 569.771 15.7934 569.771 14.5001V12.1601C569.771 10.8801 569.565 9.86673 569.151 9.12007C568.738 8.36007 568.031 7.98007 567.031 7.98007C566.031 7.98007 565.325 8.36007 564.911 9.12007C564.498 9.86673 564.291 10.8801 564.291 12.1601V14.5201C564.291 15.8001 564.498 16.8201 564.911 17.5801C565.325 18.3267 566.031 18.7001 567.031 18.7001ZM581.163 18.5601H581.063C580.957 18.8267 580.817 19.0867 580.643 19.3401C580.483 19.5801 580.283 19.7934 580.043 19.9801C579.803 20.1534 579.523 20.2934 579.203 20.4001C578.883 20.5067 578.51 20.5601 578.083 20.5601C577.043 20.5601 576.203 20.2201 575.563 19.5401C574.923 18.8601 574.603 17.8934 574.603 16.6401V10.0001H576.783V16.3201C576.783 17.9601 577.497 18.7801 578.923 18.7801C579.203 18.7801 579.477 18.7467 579.743 18.6801C580.01 18.6001 580.25 18.4867 580.463 18.3401C580.677 18.1934 580.843 18.0134 580.963 17.8001C581.097 17.5734 581.163 17.3067 581.163 17.0001V10.0001H583.343V20.3201H581.163V18.5601ZM594.856 20.3201C594.229 20.3201 593.756 20.1601 593.436 19.8401C593.129 19.5201 592.942 19.1001 592.876 18.5801H592.776C592.576 19.2067 592.209 19.6934 591.676 20.0401C591.156 20.3867 590.489 20.5601 589.676 20.5601C588.622 20.5601 587.782 20.2867 587.156 19.7401C586.529 19.1801 586.216 18.4134 586.216 17.4401C586.216 16.4401 586.582 15.6801 587.316 15.1601C588.062 14.6267 589.202 14.3601 590.736 14.3601H592.716V13.5601C592.716 12.1601 591.976 11.4601 590.496 11.4601C589.829 11.4601 589.289 11.5934 588.876 11.8601C588.462 12.1134 588.116 12.4534 587.836 12.8801L586.536 11.8201C586.829 11.2601 587.322 10.7801 588.016 10.3801C588.709 9.96674 589.602 9.76007 590.696 9.76007C592.002 9.76007 593.029 10.0734 593.776 10.7001C594.522 11.3267 594.896 12.2334 594.896 13.4201V18.6001H596.196V20.3201H594.856ZM590.296 18.9601C591.002 18.9601 591.582 18.8001 592.036 18.4801C592.489 18.1601 592.716 17.7467 592.716 17.2401V15.7401H590.776C589.202 15.7401 588.416 16.2134 588.416 17.1601V17.5601C588.416 18.0267 588.582 18.3801 588.916 18.6201C589.249 18.8467 589.709 18.9601 590.296 18.9601ZM598.508 18.5601H601.928V7.28007H598.508V5.52007H604.108V18.5601H607.528V20.3201H598.508V18.5601ZM615.64 8.12007C615.08 8.12007 614.687 8.00673 614.46 7.78007C614.247 7.5534 614.14 7.2734 614.14 6.94007V6.52007C614.14 6.18673 614.247 5.90673 614.46 5.68007C614.687 5.4534 615.073 5.34007 615.62 5.34007C616.18 5.34007 616.567 5.4534 616.78 5.68007C617.007 5.90673 617.12 6.18673 617.12 6.52007V6.94007C617.12 7.2734 617.007 7.5534 616.78 7.78007C616.567 8.00673 616.187 8.12007 615.64 8.12007ZM611.02 18.5601H614.54V11.7601H611.02V10.0001H616.72V18.5601H620.02V20.3201H611.02V18.5601ZM627.612 20.3201C626.706 20.3201 626.039 20.0801 625.612 19.6001C625.186 19.1067 624.972 18.4734 624.972 17.7001V11.7601H621.792V10.0001H624.052C624.439 10.0001 624.712 9.92673 624.872 9.78007C625.032 9.62007 625.112 9.34007 625.112 8.94007V6.36007H627.152V10.0001H631.552V11.7601H627.152V18.5601H631.552V20.3201H627.612ZM642.004 10.0001H644.204L639.204 22.3201C638.938 22.9867 638.584 23.4867 638.144 23.8201C637.718 24.1534 637.098 24.3201 636.284 24.3201H634.544V22.5601H636.984L637.924 20.1801L633.764 10.0001H636.044L637.684 14.3201L638.964 17.8601H639.084L640.364 14.3201L642.004 10.0001ZM543.443 34.0001H545.303L546.303 42.6801H546.483L548.023 34.0001H550.143L551.663 42.6801H551.843L552.863 34.0001H554.643L553.203 44.3201H550.523L549.143 36.3201H548.963L547.563 44.3201H544.883L543.443 34.0001ZM561.035 44.5601C560.275 44.5601 559.588 44.4334 558.975 44.1801C558.375 43.9267 557.862 43.5667 557.435 43.1001C557.022 42.6334 556.702 42.0667 556.475 41.4001C556.248 40.7334 556.135 39.9867 556.135 39.1601C556.135 38.3334 556.248 37.5867 556.475 36.9201C556.702 36.2534 557.022 35.6867 557.435 35.2201C557.862 34.7534 558.375 34.3934 558.975 34.1401C559.588 33.8867 560.275 33.7601 561.035 33.7601C561.795 33.7601 562.475 33.8867 563.075 34.1401C563.688 34.3934 564.202 34.7534 564.615 35.2201C565.042 35.6867 565.368 36.2534 565.595 36.9201C565.822 37.5867 565.935 38.3334 565.935 39.1601C565.935 39.9867 565.822 40.7334 565.595 41.4001C565.368 42.0667 565.042 42.6334 564.615 43.1001C564.202 43.5667 563.688 43.9267 563.075 44.1801C562.475 44.4334 561.795 44.5601 561.035 44.5601ZM561.035 42.8401C561.835 42.8401 562.468 42.6001 562.935 42.1201C563.415 41.6267 563.655 40.9001 563.655 39.9401V38.3801C563.655 37.4201 563.415 36.7001 562.935 36.2201C562.468 35.7267 561.835 35.4801 561.035 35.4801C560.235 35.4801 559.595 35.7267 559.115 36.2201C558.648 36.7001 558.415 37.4201 558.415 38.3801V39.9401C558.415 40.9001 558.648 41.6267 559.115 42.1201C559.595 42.6001 560.235 42.8401 561.035 42.8401ZM568.547 42.5601H571.287V35.7601H568.547V34.0001H573.467V36.7401H573.587C573.681 36.3801 573.814 36.0334 573.987 35.7001C574.161 35.3667 574.381 35.0801 574.647 34.8401C574.914 34.5867 575.241 34.3867 575.627 34.2401C576.014 34.0801 576.467 34.0001 576.987 34.0001H578.227V36.0801H576.187C575.387 36.0801 574.734 36.3201 574.227 36.8001C573.721 37.2667 573.467 37.9001 573.467 38.7001V42.5601H577.207V44.3201H568.547V42.5601ZM580.78 29.5201H582.96V38.4601H583.06L584.68 36.8001L587.58 34.0001H590.16L585.98 38.0601L590.62 44.3201H588L584.4 39.3001L582.96 40.6401V44.3201H580.78V29.5201ZM591.892 44.3201V34.0001H593.752V35.3401H593.852C594.012 34.9001 594.238 34.5267 594.532 34.2201C594.838 33.9134 595.272 33.7601 595.832 33.7601C596.378 33.7601 596.798 33.9134 597.092 34.2201C597.398 34.5134 597.592 34.9201 597.672 35.4401H597.752C597.938 34.9734 598.198 34.5801 598.532 34.2601C598.865 33.9267 599.345 33.7601 599.972 33.7601C600.772 33.7601 601.325 34.0401 601.632 34.6001C601.952 35.1601 602.112 35.9801 602.112 37.0601V44.3201H600.252V37.3401C600.252 36.6201 600.165 36.1267 599.992 35.8601C599.818 35.5801 599.538 35.4401 599.152 35.4401C598.805 35.4401 598.512 35.5601 598.272 35.8001C598.045 36.0267 597.932 36.3734 597.932 36.8401V44.3201H596.072V37.3401C596.072 36.6201 595.985 36.1267 595.812 35.8601C595.652 35.5801 595.378 35.4401 594.992 35.4401C594.632 35.4401 594.332 35.5601 594.092 35.8001C593.865 36.0267 593.752 36.3734 593.752 36.8401V44.3201H591.892ZM612.844 44.3201C612.217 44.3201 611.744 44.1601 611.424 43.8401C611.117 43.5201 610.931 43.1001 610.864 42.5801H610.764C610.564 43.2067 610.197 43.6934 609.664 44.0401C609.144 44.3867 608.477 44.5601 607.664 44.5601C606.611 44.5601 605.771 44.2867 605.144 43.7401C604.517 43.1801 604.204 42.4134 604.204 41.4401C604.204 40.4401 604.571 39.6801 605.304 39.1601C606.051 38.6267 607.191 38.3601 608.724 38.3601H610.704V37.5601C610.704 36.1601 609.964 35.4601 608.484 35.4601C607.817 35.4601 607.277 35.5934 606.864 35.8601C606.451 36.1134 606.104 36.4534 605.824 36.8801L604.524 35.8201C604.817 35.2601 605.311 34.7801 606.004 34.3801C606.697 33.9667 607.591 33.7601 608.684 33.7601C609.991 33.7601 611.017 34.0734 611.764 34.7001C612.511 35.3267 612.884 36.2334 612.884 37.4201V42.6001H614.184V44.3201H612.844ZM608.284 42.9601C608.991 42.9601 609.571 42.8001 610.024 42.4801C610.477 42.1601 610.704 41.7467 610.704 41.2401V39.7401H608.764C607.191 39.7401 606.404 40.2134 606.404 41.1601V41.5601C606.404 42.0267 606.571 42.3801 606.904 42.6201C607.237 42.8467 607.697 42.9601 608.284 42.9601ZM616.676 44.3201V34.0001H618.856V35.7601H618.956C619.063 35.4934 619.196 35.2401 619.356 35.0001C619.529 34.7467 619.736 34.5334 619.976 34.3601C620.216 34.1734 620.496 34.0267 620.816 33.9201C621.136 33.8134 621.509 33.7601 621.936 33.7601C622.976 33.7601 623.816 34.1001 624.456 34.7801C625.096 35.4601 625.416 36.4267 625.416 37.6801V44.3201H623.236V38.0001C623.236 36.3601 622.523 35.5401 621.096 35.5401C620.816 35.5401 620.543 35.5801 620.276 35.6601C620.009 35.7267 619.769 35.8334 619.556 35.9801C619.343 36.1267 619.169 36.3134 619.036 36.5401C618.916 36.7667 618.856 37.0267 618.856 37.3201V44.3201H616.676ZM633.008 44.5601C631.888 44.5601 630.922 44.3801 630.108 44.0201C629.308 43.6601 628.662 43.1801 628.168 42.5801L629.508 41.3801C629.962 41.8734 630.468 42.2534 631.028 42.5201C631.602 42.7734 632.275 42.9001 633.048 42.9001C633.755 42.9001 634.322 42.7801 634.748 42.5401C635.188 42.3001 635.408 41.9267 635.408 41.4201C635.408 41.2067 635.368 41.0267 635.288 40.8801C635.208 40.7334 635.095 40.6134 634.948 40.5201C634.802 40.4267 634.628 40.3534 634.428 40.3001C634.242 40.2467 634.042 40.2067 633.828 40.1801L632.188 39.9201C631.788 39.8667 631.382 39.7801 630.968 39.6601C630.555 39.5401 630.182 39.3734 629.848 39.1601C629.528 38.9334 629.262 38.6467 629.048 38.3001C628.848 37.9534 628.748 37.5134 628.748 36.9801C628.748 35.9267 629.148 35.1267 629.948 34.5801C630.762 34.0334 631.828 33.7601 633.148 33.7601C634.108 33.7601 634.935 33.9067 635.628 34.2001C636.335 34.4801 636.922 34.8734 637.388 35.3801L636.168 36.6601C635.902 36.3534 635.522 36.0734 635.028 35.8201C634.535 35.5534 633.882 35.4201 633.068 35.4201C631.615 35.4201 630.888 35.8801 630.888 36.8001C630.888 37.2401 631.042 37.5467 631.348 37.7201C631.668 37.8801 632.042 37.9867 632.468 38.0401L634.108 38.3001C634.522 38.3667 634.928 38.4534 635.328 38.5601C635.742 38.6667 636.108 38.8334 636.428 39.0601C636.762 39.2734 637.028 39.5534 637.228 39.9001C637.442 40.2467 637.548 40.6867 637.548 41.2201C637.548 42.2601 637.142 43.0801 636.328 43.6801C635.528 44.2667 634.422 44.5601 633.008 44.5601ZM640.66 29.5201H642.84V35.7601H642.94C643.047 35.4934 643.18 35.2401 643.34 35.0001C643.514 34.7467 643.72 34.5334 643.96 34.3601C644.2 34.1734 644.48 34.0267 644.8 33.9201C645.12 33.8134 645.494 33.7601 645.92 33.7601C646.96 33.7601 647.8 34.1001 648.44 34.7801C649.08 35.4601 649.4 36.4267 649.4 37.6801V44.3201H647.22V38.0001C647.22 36.3601 646.507 35.5401 645.08 35.5401C644.8 35.5401 644.527 35.5801 644.26 35.6601C643.994 35.7267 643.754 35.8334 643.54 35.9801C643.327 36.1267 643.154 36.3134 643.02 36.5401C642.9 36.7667 642.84 37.0267 642.84 37.3201V44.3201H640.66V29.5201ZM657.613 32.1201C657.053 32.1201 656.659 32.0067 656.433 31.7801C656.219 31.5534 656.113 31.2734 656.113 30.9401V30.5201C656.113 30.1867 656.219 29.9067 656.433 29.6801C656.659 29.4534 657.046 29.3401 657.593 29.3401C658.153 29.3401 658.539 29.4534 658.753 29.6801C658.979 29.9067 659.093 30.1867 659.093 30.5201V30.9401C659.093 31.2734 658.979 31.5534 658.753 31.7801C658.539 32.0067 658.159 32.1201 657.613 32.1201ZM652.993 42.5601H656.513V35.7601H652.993V34.0001H658.693V42.5601H661.993V44.3201H652.993V42.5601ZM664.545 34.0001H666.725V35.7601H666.845C667.152 35.1334 667.558 34.6467 668.065 34.3001C668.572 33.9401 669.205 33.7601 669.965 33.7601C671.178 33.7601 672.145 34.2134 672.865 35.1201C673.585 36.0267 673.945 37.3734 673.945 39.1601C673.945 40.9467 673.585 42.2934 672.865 43.2001C672.145 44.1067 671.178 44.5601 669.965 44.5601C669.205 44.5601 668.572 44.3867 668.065 44.0401C667.558 43.6801 667.152 43.1867 666.845 42.5601H666.725V48.3201H664.545V34.0001ZM669.065 42.7801C669.892 42.7801 670.525 42.5267 670.965 42.0201C671.418 41.5134 671.645 40.8401 671.645 40.0001V38.3201C671.645 37.4801 671.418 36.8067 670.965 36.3001C670.525 35.7934 669.892 35.5401 669.065 35.5401C668.745 35.5401 668.445 35.5801 668.165 35.6601C667.885 35.7401 667.638 35.8601 667.425 36.0201C667.212 36.1801 667.038 36.3801 666.905 36.6201C666.785 36.8467 666.725 37.1201 666.725 37.4401V40.8801C666.725 41.2001 666.785 41.4801 666.905 41.7201C667.038 41.9467 667.212 42.1401 667.425 42.3001C667.638 42.4601 667.885 42.5801 668.165 42.6601C668.445 42.7401 668.745 42.7801 669.065 42.7801Z" fill="#121212"/>
<path d="M781.783 20.3201V6.36007H790.763V8.24007H784.023V12.3001H790.143V14.1801H784.023V20.3201H781.783ZM801.895 20.3201C801.268 20.3201 800.795 20.1601 800.475 19.8401C800.168 19.5201 799.981 19.1001 799.915 18.5801H799.815C799.615 19.2067 799.248 19.6934 798.715 20.0401C798.195 20.3867 797.528 20.5601 796.715 20.5601C795.661 20.5601 794.821 20.2867 794.195 19.7401C793.568 19.1801 793.255 18.4134 793.255 17.4401C793.255 16.4401 793.621 15.6801 794.355 15.1601C795.101 14.6267 796.241 14.3601 797.775 14.3601H799.755V13.5601C799.755 12.1601 799.015 11.4601 797.535 11.4601C796.868 11.4601 796.328 11.5934 795.915 11.8601C795.501 12.1134 795.155 12.4534 794.875 12.8801L793.575 11.8201C793.868 11.2601 794.361 10.7801 795.055 10.3801C795.748 9.96674 796.641 9.76007 797.735 9.76007C799.041 9.76007 800.068 10.0734 800.815 10.7001C801.561 11.3267 801.935 12.2334 801.935 13.4201V18.6001H803.235V20.3201H801.895ZM797.335 18.9601C798.041 18.9601 798.621 18.8001 799.075 18.4801C799.528 18.1601 799.755 17.7467 799.755 17.2401V15.7401H797.815C796.241 15.7401 795.455 16.2134 795.455 17.1601V17.5601C795.455 18.0267 795.621 18.3801 795.955 18.6201C796.288 18.8467 796.748 18.9601 797.335 18.9601ZM810.067 20.5601C808.947 20.5601 807.98 20.3801 807.167 20.0201C806.367 19.6601 805.72 19.1801 805.227 18.5801L806.567 17.3801C807.02 17.8734 807.527 18.2534 808.087 18.5201C808.66 18.7734 809.334 18.9001 810.107 18.9001C810.814 18.9001 811.38 18.7801 811.807 18.5401C812.247 18.3001 812.467 17.9267 812.467 17.4201C812.467 17.2067 812.427 17.0267 812.347 16.8801C812.267 16.7334 812.154 16.6134 812.007 16.5201C811.86 16.4267 811.687 16.3534 811.487 16.3001C811.3 16.2467 811.1 16.2067 810.887 16.1801L809.247 15.9201C808.847 15.8667 808.44 15.7801 808.027 15.6601C807.614 15.5401 807.24 15.3734 806.907 15.1601C806.587 14.9334 806.32 14.6467 806.107 14.3001C805.907 13.9534 805.807 13.5134 805.807 12.9801C805.807 11.9267 806.207 11.1267 807.007 10.5801C807.82 10.0334 808.887 9.76007 810.207 9.76007C811.167 9.76007 811.994 9.90673 812.687 10.2001C813.394 10.4801 813.98 10.8734 814.447 11.3801L813.227 12.6601C812.96 12.3534 812.58 12.0734 812.087 11.8201C811.594 11.5534 810.94 11.4201 810.127 11.4201C808.674 11.4201 807.947 11.8801 807.947 12.8001C807.947 13.2401 808.1 13.5467 808.407 13.7201C808.727 13.8801 809.1 13.9867 809.527 14.0401L811.167 14.3001C811.58 14.3667 811.987 14.4534 812.387 14.5601C812.8 14.6667 813.167 14.8334 813.487 15.0601C813.82 15.2734 814.087 15.5534 814.287 15.9001C814.5 16.2467 814.607 16.6867 814.607 17.2201C814.607 18.2601 814.2 19.0801 813.387 19.6801C812.587 20.2667 811.48 20.5601 810.067 20.5601ZM822.659 20.3201C821.752 20.3201 821.086 20.0801 820.659 19.6001C820.232 19.1067 820.019 18.4734 820.019 17.7001V11.7601H816.839V10.0001H819.099C819.486 10.0001 819.759 9.92673 819.919 9.78007C820.079 9.62007 820.159 9.34007 820.159 8.94007V6.36007H822.199V10.0001H826.599V11.7601H822.199V18.5601H826.599V20.3201H822.659ZM846.643 20.3201C845.737 20.3201 845.07 20.0801 844.643 19.6001C844.217 19.1067 844.003 18.4734 844.003 17.7001V11.7601H840.823V10.0001H843.083C843.47 10.0001 843.743 9.92673 843.903 9.78007C844.063 9.62007 844.143 9.34007 844.143 8.94007V6.36007H846.183V10.0001H850.583V11.7601H846.183V18.5601H850.583V20.3201H846.643ZM860.156 18.5601H860.056C859.949 18.8267 859.809 19.0867 859.636 19.3401C859.476 19.5801 859.276 19.7934 859.036 19.9801C858.796 20.1534 858.516 20.2934 858.196 20.4001C857.876 20.5067 857.502 20.5601 857.076 20.5601C856.036 20.5601 855.196 20.2201 854.556 19.5401C853.916 18.8601 853.596 17.8934 853.596 16.6401V10.0001H855.776V16.3201C855.776 17.9601 856.489 18.7801 857.916 18.7801C858.196 18.7801 858.469 18.7467 858.736 18.6801C859.002 18.6001 859.242 18.4867 859.456 18.3401C859.669 18.1934 859.836 18.0134 859.956 17.8001C860.089 17.5734 860.156 17.3067 860.156 17.0001V10.0001H862.336V20.3201H860.156V18.5601ZM865.528 18.5601H868.268V11.7601H865.528V10.0001H870.448V12.7401H870.568C870.661 12.3801 870.794 12.0334 870.968 11.7001C871.141 11.3667 871.361 11.0801 871.628 10.8401C871.894 10.5867 872.221 10.3867 872.608 10.2401C872.994 10.0801 873.448 10.0001 873.968 10.0001H875.208V12.0801H873.168C872.368 12.0801 871.714 12.3201 871.208 12.8001C870.701 13.2667 870.448 13.9001 870.448 14.7001V18.5601H874.188V20.3201H865.528V18.5601ZM877.68 20.3201V10.0001H879.86V11.7601H879.96C880.067 11.4934 880.2 11.2401 880.36 11.0001C880.533 10.7467 880.74 10.5334 880.98 10.3601C881.22 10.1734 881.5 10.0267 881.82 9.92007C882.14 9.8134 882.513 9.76007 882.94 9.76007C883.98 9.76007 884.82 10.1001 885.46 10.7801C886.1 11.4601 886.42 12.4267 886.42 13.6801V20.3201H884.24V14.0001C884.24 12.3601 883.527 11.5401 882.1 11.5401C881.82 11.5401 881.547 11.5801 881.28 11.6601C881.013 11.7267 880.773 11.8334 880.56 11.9801C880.347 12.1267 880.173 12.3134 880.04 12.5401C879.92 12.7667 879.86 13.0267 879.86 13.3201V20.3201H877.68ZM897.832 20.3201C897.206 20.3201 896.732 20.1601 896.412 19.8401C896.106 19.5201 895.919 19.1001 895.852 18.5801H895.752C895.552 19.2067 895.186 19.6934 894.652 20.0401C894.132 20.3867 893.466 20.5601 892.652 20.5601C891.599 20.5601 890.759 20.2867 890.132 19.7401C889.506 19.1801 889.192 18.4134 889.192 17.4401C889.192 16.4401 889.559 15.6801 890.292 15.1601C891.039 14.6267 892.179 14.3601 893.712 14.3601H895.692V13.5601C895.692 12.1601 894.952 11.4601 893.472 11.4601C892.806 11.4601 892.266 11.5934 891.852 11.8601C891.439 12.1134 891.092 12.4534 890.812 12.8801L889.512 11.8201C889.806 11.2601 890.299 10.7801 890.992 10.3801C891.686 9.96674 892.579 9.76007 893.672 9.76007C894.979 9.76007 896.006 10.0734 896.752 10.7001C897.499 11.3267 897.872 12.2334 897.872 13.4201V18.6001H899.172V20.3201H897.832ZM893.272 18.9601C893.979 18.9601 894.559 18.8001 895.012 18.4801C895.466 18.1601 895.692 17.7467 895.692 17.2401V15.7401H893.752C892.179 15.7401 891.392 16.2134 891.392 17.1601V17.5601C891.392 18.0267 891.559 18.3801 891.892 18.6201C892.226 18.8467 892.686 18.9601 893.272 18.9601ZM901.504 18.5601H904.244V11.7601H901.504V10.0001H906.424V12.7401H906.544C906.638 12.3801 906.771 12.0334 906.944 11.7001C907.118 11.3667 907.338 11.0801 907.604 10.8401C907.871 10.5867 908.198 10.3867 908.584 10.2401C908.971 10.0801 909.424 10.0001 909.944 10.0001H911.184V12.0801H909.144C908.344 12.0801 907.691 12.3201 907.184 12.8001C906.678 13.2667 906.424 13.9001 906.424 14.7001V18.5601H910.164V20.3201H901.504V18.5601ZM917.977 20.5601C917.217 20.5601 916.53 20.4334 915.917 20.1801C915.317 19.9267 914.803 19.5667 914.377 19.1001C913.963 18.6334 913.643 18.0667 913.417 17.4001C913.19 16.7334 913.077 15.9867 913.077 15.1601C913.077 14.3334 913.19 13.5867 913.417 12.9201C913.643 12.2534 913.963 11.6867 914.377 11.2201C914.803 10.7534 915.317 10.3934 915.917 10.1401C916.53 9.88674 917.217 9.76007 917.977 9.76007C918.737 9.76007 919.417 9.88674 920.017 10.1401C920.63 10.3934 921.143 10.7534 921.557 11.2201C921.983 11.6867 922.31 12.2534 922.537 12.9201C922.763 13.5867 922.877 14.3334 922.877 15.1601C922.877 15.9867 922.763 16.7334 922.537 17.4001C922.31 18.0667 921.983 18.6334 921.557 19.1001C921.143 19.5667 920.63 19.9267 920.017 20.1801C919.417 20.4334 918.737 20.5601 917.977 20.5601ZM917.977 18.8401C918.777 18.8401 919.41 18.6001 919.877 18.1201C920.357 17.6267 920.597 16.9001 920.597 15.9401V14.3801C920.597 13.4201 920.357 12.7001 919.877 12.2201C919.41 11.7267 918.777 11.4801 917.977 11.4801C917.177 11.4801 916.537 11.7267 916.057 12.2201C915.59 12.7001 915.357 13.4201 915.357 14.3801V15.9401C915.357 16.9001 915.59 17.6267 916.057 18.1201C916.537 18.6001 917.177 18.8401 917.977 18.8401ZM932.109 18.5601H932.009C931.902 18.8267 931.762 19.0867 931.589 19.3401C931.429 19.5801 931.229 19.7934 930.989 19.9801C930.749 20.1534 930.469 20.2934 930.149 20.4001C929.829 20.5067 929.455 20.5601 929.029 20.5601C927.989 20.5601 927.149 20.2201 926.509 19.5401C925.869 18.8601 925.549 17.8934 925.549 16.6401V10.0001H927.729V16.3201C927.729 17.9601 928.442 18.7801 929.869 18.7801C930.149 18.7801 930.422 18.7467 930.689 18.6801C930.955 18.6001 931.195 18.4867 931.409 18.3401C931.622 18.1934 931.789 18.0134 931.909 17.8001C932.042 17.5734 932.109 17.3067 932.109 17.0001V10.0001H934.289V20.3201H932.109V18.5601ZM937.641 20.3201V10.0001H939.821V11.7601H939.921C940.028 11.4934 940.161 11.2401 940.321 11.0001C940.494 10.7467 940.701 10.5334 940.941 10.3601C941.181 10.1734 941.461 10.0267 941.781 9.92007C942.101 9.8134 942.474 9.76007 942.901 9.76007C943.941 9.76007 944.781 10.1001 945.421 10.7801C946.061 11.4601 946.381 12.4267 946.381 13.6801V20.3201H944.201V14.0001C944.201 12.3601 943.488 11.5401 942.061 11.5401C941.781 11.5401 941.508 11.5801 941.241 11.6601C940.974 11.7267 940.734 11.8334 940.521 11.9801C940.308 12.1267 940.134 12.3134 940.001 12.5401C939.881 12.7667 939.821 13.0267 939.821 13.3201V20.3201H937.641ZM956.193 18.5601H956.073C955.766 19.1867 955.36 19.6801 954.853 20.0401C954.346 20.3867 953.713 20.5601 952.953 20.5601C951.74 20.5601 950.773 20.1067 950.053 19.2001C949.333 18.2934 948.973 16.9467 948.973 15.1601C948.973 13.3734 949.333 12.0267 950.053 11.1201C950.773 10.2134 951.74 9.76007 952.953 9.76007C953.713 9.76007 954.346 9.94007 954.853 10.3001C955.36 10.6467 955.766 11.1334 956.073 11.7601H956.193V5.52007H958.373V20.3201H956.193V18.5601ZM953.853 18.7801C954.173 18.7801 954.473 18.7401 954.753 18.6601C955.033 18.5801 955.28 18.4601 955.493 18.3001C955.706 18.1401 955.873 17.9467 955.993 17.7201C956.126 17.4801 956.193 17.2001 956.193 16.8801V13.4401C956.193 13.1201 956.126 12.8467 955.993 12.6201C955.873 12.3801 955.706 12.1801 955.493 12.0201C955.28 11.8601 955.033 11.7401 954.753 11.6601C954.473 11.5801 954.173 11.5401 953.853 11.5401C953.026 11.5401 952.386 11.7934 951.933 12.3001C951.493 12.8067 951.273 13.4801 951.273 14.3201V16.0001C951.273 16.8401 951.493 17.5134 951.933 18.0201C952.386 18.5267 953.026 18.7801 953.853 18.7801ZM852.64 44.3201C851.733 44.3201 851.066 44.0801 850.64 43.6001C850.213 43.1067 850 42.4734 850 41.7001V35.7601H846.82V34.0001H849.08C849.466 34.0001 849.74 33.9267 849.9 33.7801C850.06 33.6201 850.14 33.3401 850.14 32.9401V30.3601H852.18V34.0001H856.58V35.7601H852.18V42.5601H856.58V44.3201H852.64ZM864.652 32.1201C864.092 32.1201 863.698 32.0067 863.472 31.7801C863.258 31.5534 863.152 31.2734 863.152 30.9401V30.5201C863.152 30.1867 863.258 29.9067 863.472 29.6801C863.698 29.4534 864.085 29.3401 864.632 29.3401C865.192 29.3401 865.578 29.4534 865.792 29.6801C866.018 29.9067 866.132 30.1867 866.132 30.5201V30.9401C866.132 31.2734 866.018 31.5534 865.792 31.7801C865.578 32.0067 865.198 32.1201 864.652 32.1201ZM860.032 42.5601H863.552V35.7601H860.032V34.0001H865.732V42.5601H869.032V44.3201H860.032V42.5601ZM870.884 44.3201V34.0001H872.744V35.3401H872.844C873.004 34.9001 873.231 34.5267 873.524 34.2201C873.831 33.9134 874.264 33.7601 874.824 33.7601C875.371 33.7601 875.791 33.9134 876.084 34.2201C876.391 34.5134 876.584 34.9201 876.664 35.4401H876.744C876.931 34.9734 877.191 34.5801 877.524 34.2601C877.857 33.9267 878.337 33.7601 878.964 33.7601C879.764 33.7601 880.317 34.0401 880.624 34.6001C880.944 35.1601 881.104 35.9801 881.104 37.0601V44.3201H879.244V37.3401C879.244 36.6201 879.157 36.1267 878.984 35.8601C878.811 35.5801 878.531 35.4401 878.144 35.4401C877.797 35.4401 877.504 35.5601 877.264 35.8001C877.037 36.0267 876.924 36.3734 876.924 36.8401V44.3201H875.064V37.3401C875.064 36.6201 874.977 36.1267 874.804 35.8601C874.644 35.5801 874.371 35.4401 873.984 35.4401C873.624 35.4401 873.324 35.5601 873.084 35.8001C872.857 36.0267 872.744 36.3734 872.744 36.8401V44.3201H870.884ZM888.216 44.5601C887.429 44.5601 886.723 44.4334 886.096 44.1801C885.469 43.9267 884.943 43.5667 884.516 43.1001C884.089 42.6334 883.763 42.0734 883.536 41.4201C883.309 40.7534 883.196 40.0067 883.196 39.1801C883.196 38.3534 883.309 37.6067 883.536 36.9401C883.776 36.2734 884.103 35.7067 884.516 35.2401C884.943 34.7601 885.456 34.3934 886.056 34.1401C886.656 33.8867 887.323 33.7601 888.056 33.7601C888.776 33.7601 889.429 33.8867 890.016 34.1401C890.603 34.3801 891.103 34.7267 891.516 35.1801C891.929 35.6334 892.243 36.1734 892.456 36.8001C892.683 37.4267 892.796 38.1201 892.796 38.8801V39.7001H885.396V40.0401C885.396 40.8534 885.649 41.5201 886.156 42.0401C886.663 42.5467 887.363 42.8001 888.256 42.8001C888.923 42.8001 889.489 42.6601 889.956 42.3801C890.436 42.0867 890.823 41.7001 891.116 41.2201L892.476 42.4201C892.129 43.0201 891.596 43.5267 890.876 43.9401C890.169 44.3534 889.283 44.5601 888.216 44.5601ZM888.056 35.4201C887.669 35.4201 887.309 35.4867 886.976 35.6201C886.656 35.7534 886.376 35.9467 886.136 36.2001C885.909 36.4401 885.729 36.7267 885.596 37.0601C885.463 37.3934 885.396 37.7601 885.396 38.1601V38.3001H890.576V38.1001C890.576 37.2867 890.343 36.6401 889.876 36.1601C889.423 35.6667 888.816 35.4201 888.056 35.4201ZM900.008 44.5601C898.888 44.5601 897.922 44.3801 897.108 44.0201C896.308 43.6601 895.662 43.1801 895.168 42.5801L896.508 41.3801C896.962 41.8734 897.468 42.2534 898.028 42.5201C898.602 42.7734 899.275 42.9001 900.048 42.9001C900.755 42.9001 901.322 42.7801 901.748 42.5401C902.188 42.3001 902.408 41.9267 902.408 41.4201C902.408 41.2067 902.368 41.0267 902.288 40.8801C902.208 40.7334 902.095 40.6134 901.948 40.5201C901.802 40.4267 901.628 40.3534 901.428 40.3001C901.242 40.2467 901.042 40.2067 900.828 40.1801L899.188 39.9201C898.788 39.8667 898.382 39.7801 897.968 39.6601C897.555 39.5401 897.182 39.3734 896.848 39.1601C896.528 38.9334 896.262 38.6467 896.048 38.3001C895.848 37.9534 895.748 37.5134 895.748 36.9801C895.748 35.9267 896.148 35.1267 896.948 34.5801C897.762 34.0334 898.828 33.7601 900.148 33.7601C901.108 33.7601 901.935 33.9067 902.628 34.2001C903.335 34.4801 903.922 34.8734 904.388 35.3801L903.168 36.6601C902.902 36.3534 902.522 36.0734 902.028 35.8201C901.535 35.5534 900.882 35.4201 900.068 35.4201C898.615 35.4201 897.888 35.8801 897.888 36.8001C897.888 37.2401 898.042 37.5467 898.348 37.7201C898.668 37.8801 899.042 37.9867 899.468 38.0401L901.108 38.3001C901.522 38.3667 901.928 38.4534 902.328 38.5601C902.742 38.6667 903.108 38.8334 903.428 39.0601C903.762 39.2734 904.028 39.5534 904.228 39.9001C904.442 40.2467 904.548 40.6867 904.548 41.2201C904.548 42.2601 904.142 43.0801 903.328 43.6801C902.528 44.2667 901.422 44.5601 900.008 44.5601Z" fill="#121212"/>
<line x1="96" y1="104.82" x2="876" y2="104.82" stroke="#121212"/>
<line x1="95.5" y1="105.32" x2="95.5" y2="60.3201" stroke="#121212"/>
<line x1="354.5" y1="105.32" x2="354.5" y2="60.3201" stroke="#121212"/>
<line x1="224.5" y1="105.32" x2="224.5" y2="83.3201" stroke="#121212"/>
<line x1="480.5" y1="105.32" x2="480.5" y2="83.3201" stroke="#121212"/>
<line x1="740.5" y1="105.32" x2="740.5" y2="83.3201" stroke="#121212"/>
<line x1="192.5" y1="105.32" x2="192.5" y2="93.3201" stroke="#121212"/>
<line x1="448.5" y1="105.32" x2="448.5" y2="93.3201" stroke="#121212"/>
<line x1="708.5" y1="105.32" x2="708.5" y2="93.3201" stroke="#121212"/>
<line x1="320.5" y1="105.32" x2="320.5" y2="93.3201" stroke="#121212"/>
<line x1="576.5" y1="105.32" x2="576.5" y2="93.3201" stroke="#121212"/>
<line x1="836.5" y1="105.32" x2="836.5" y2="93.3201" stroke="#121212"/>
<line x1="160.5" y1="105.32" x2="160.5" y2="93.3201" stroke="#121212"/>
<line x1="416.5" y1="105.32" x2="416.5" y2="93.3201" stroke="#121212"/>
<line x1="676.5" y1="105.32" x2="676.5" y2="93.3201" stroke="#121212"/>
<line x1="288.5" y1="105.32" x2="288.5" y2="93.3201" stroke="#121212"/>
<line x1="544.5" y1="105.32" x2="544.5" y2="93.3201" stroke="#121212"/>
<line x1="804.5" y1="105.32" x2="804.5" y2="93.3201" stroke="#121212"/>
<line x1="128.5" y1="105.32" x2="128.5" y2="93.3201" stroke="#121212"/>
<line x1="384.5" y1="105.32" x2="384.5" y2="93.3201" stroke="#121212"/>
<line x1="644.5" y1="105.32" x2="644.5" y2="93.3201" stroke="#121212"/>
<line x1="256.5" y1="105.32" x2="256.5" y2="93.3201" stroke="#121212"/>
<line x1="512.5" y1="105.32" x2="512.5" y2="93.3201" stroke="#121212"/>
<line x1="772.5" y1="105.32" x2="772.5" y2="93.3201" stroke="#121212"/>
<line x1="605.5" y1="105.32" x2="605.5" y2="60.3201" stroke="#121212"/>
<line x1="875.5" y1="105.32" x2="875.5" y2="60.3201" stroke="#121212"/>
</svg>
