<svg width="45" height="641" viewBox="0 0 45 641" fill="none" xmlns="http://www.w3.org/2000/svg">
<line x1="0.5" y1="1" x2="0.5" y2="641" stroke="black"/>
<line y1="0.5" x2="45" y2="0.5" stroke="black"/>
<line y1="160.5" x2="45" y2="160.5" stroke="black"/>
<line y1="320.5" x2="45" y2="320.5" stroke="black"/>
<line y1="480.5" x2="45" y2="480.5" stroke="black"/>
<line y1="640.5" x2="45" y2="640.5" stroke="black"/>
<line x1="2.18557e-08" y1="80.5" x2="22" y2="80.5" stroke="black"/>
<line x1="2.18557e-08" y1="60.5" x2="12" y2="60.5" stroke="black"/>
<line x1="2.18557e-08" y1="140.5" x2="12" y2="140.5" stroke="black"/>
<line x1="2.18557e-08" y1="40.5" x2="12" y2="40.5" stroke="black"/>
<line x1="2.18557e-08" y1="120.5" x2="12" y2="120.5" stroke="black"/>
<line x1="2.18557e-08" y1="20.5" x2="12" y2="20.5" stroke="black"/>
<line x1="2.18557e-08" y1="100.5" x2="12" y2="100.5" stroke="black"/>
<line x1="2.18557e-08" y1="240.5" x2="22" y2="240.5" stroke="black"/>
<line x1="2.18557e-08" y1="220.5" x2="12" y2="220.5" stroke="black"/>
<line x1="2.18557e-08" y1="300.5" x2="12" y2="300.5" stroke="black"/>
<line x1="2.18557e-08" y1="200.5" x2="12" y2="200.5" stroke="black"/>
<line x1="2.18557e-08" y1="280.5" x2="12" y2="280.5" stroke="black"/>
<line x1="2.18557e-08" y1="180.5" x2="12" y2="180.5" stroke="black"/>
<line x1="2.18557e-08" y1="260.5" x2="12" y2="260.5" stroke="black"/>
<line x1="2.18557e-08" y1="400.5" x2="22" y2="400.5" stroke="black"/>
<line x1="2.18557e-08" y1="560.5" x2="22" y2="560.5" stroke="black"/>
<line x1="2.18557e-08" y1="380.5" x2="12" y2="380.5" stroke="black"/>
<line x1="2.18557e-08" y1="540.5" x2="12" y2="540.5" stroke="black"/>
<line x1="2.18557e-08" y1="460.5" x2="12" y2="460.5" stroke="black"/>
<line x1="2.18557e-08" y1="620.5" x2="12" y2="620.5" stroke="black"/>
<line x1="2.18557e-08" y1="360.5" x2="12" y2="360.5" stroke="black"/>
<line x1="2.18557e-08" y1="520.5" x2="12" y2="520.5" stroke="black"/>
<line x1="2.18557e-08" y1="440.5" x2="12" y2="440.5" stroke="black"/>
<line x1="2.18557e-08" y1="600.5" x2="12" y2="600.5" stroke="black"/>
<line x1="2.18557e-08" y1="340.5" x2="12" y2="340.5" stroke="black"/>
<line x1="2.18557e-08" y1="500.5" x2="12" y2="500.5" stroke="black"/>
<line x1="2.18557e-08" y1="420.5" x2="12" y2="420.5" stroke="black"/>
<line x1="2.18557e-08" y1="580.5" x2="12" y2="580.5" stroke="black"/>
</svg>
