<svg width="24" height="24" viewBox="0 0 24 24" fill="none" xmlns="http://www.w3.org/2000/svg">
<g clip-path="url(#clip0_210_919)">
<path d="M6.98916 13.8779L6.36261 16.2169L4.07258 16.2654C3.38819 14.996 3 13.5437 3 12.0003C3 10.5079 3.36295 9.10055 4.00631 7.86133H4.0068L6.04557 8.23511L6.93868 10.2616C6.75175 10.8066 6.64987 11.3916 6.64987 12.0003C6.64994 12.661 6.76961 13.294 6.98916 13.8779Z" fill="#FBBB00"/>
<path d="M20.8428 10.3184C20.9462 10.8628 21.0001 11.425 21.0001 11.9997C21.0001 12.644 20.9324 13.2725 20.8033 13.8788C20.3652 15.9419 19.2204 17.7433 17.6345 19.0182L17.634 19.0177L15.0661 18.8866L14.7027 16.6178C15.755 16.0007 16.5773 15.0349 17.0105 13.8788H12.198V10.3184H17.0807H20.8428Z" fill="#518EF8"/>
<path d="M17.6338 19.0183L17.6343 19.0188C16.0919 20.2585 14.1327 21.0002 11.9999 21.0002C8.57249 21.0002 5.59262 19.0845 4.07251 16.2654L6.98909 13.8779C7.74913 15.9064 9.70589 17.3503 11.9999 17.3503C12.9859 17.3503 13.9097 17.0838 14.7023 16.6185L17.6338 19.0183Z" fill="#28B446"/>
<path d="M17.7446 5.07196L14.829 7.45892C14.0087 6.94613 13.0389 6.64991 12 6.64991C9.65407 6.64991 7.66072 8.16011 6.93875 10.2613L4.00684 7.86096H4.00635C5.50421 4.97307 8.52166 3 12 3C14.1837 3 16.186 3.77786 17.7446 5.07196Z" fill="#F14336"/>
</g>
<defs>
<clipPath id="clip0_210_919">
<rect width="18" height="18" fill="white" transform="translate(3 3)"/>
</clipPath>
</defs>
</svg>
