<svg width="24" height="24" viewBox="0 0 24 24" fill="none" xmlns="http://www.w3.org/2000/svg">
<path d="M11.6265 3.15106C11.5641 2.92249 11.377 2.75581 11.1275 2.67296C10.3375 2.46486 7.25982 3.3382 6.69839 3.94008C6.51125 4.12723 6.44886 4.3787 6.51125 4.58485C6.59458 4.772 10.3998 10.8439 10.3998 10.8439C10.9613 11.7587 11.4184 11.6339 11.5641 11.5716C11.7103 11.5301 12.167 11.3844 12.1256 10.3044C12.0422 9.03635 11.6679 3.42154 11.6265 3.15106ZM9.98364 14.5459C10.2955 14.463 10.5037 14.1716 10.5246 13.8183C10.5451 13.444 10.3579 13.1111 10.046 12.9864L9.17415 12.633C6.20129 11.3854 6.07604 11.344 5.93032 11.344C5.70175 11.323 5.4917 11.4478 5.34842 11.6763C5.05601 12.1549 4.93222 13.6935 5.03651 14.7126C5.07794 15.0449 5.14032 15.3364 5.22366 15.5026C5.34842 15.7311 5.53556 15.8768 5.76413 15.8768C5.91034 15.8768 5.9927 15.8559 8.75843 14.9621L9.98364 14.5459ZM11.5432 15.6897C11.2108 15.5435 10.8365 15.6273 10.6284 15.8978L10.0256 16.6254C7.94602 19.1207 7.86268 19.2245 7.8003 19.3702C7.76642 19.4561 7.75226 19.5486 7.75887 19.6407C7.76507 19.7819 7.82443 19.9156 7.92506 20.015C8.40364 20.5969 10.7118 21.4702 11.4603 21.3454C11.5771 21.3307 11.6874 21.2838 11.7791 21.2101C11.8708 21.1363 11.9403 21.0386 11.9798 20.9278C12.0218 20.7816 12.0422 20.6783 12.0422 17.7463V16.4173C12.0841 16.1054 11.876 15.8145 11.5432 15.6897ZM18.7794 16.2745C18.6546 16.1912 18.5718 16.1498 15.8065 15.2345C15.8065 15.2345 14.6003 14.8188 14.5799 14.8188C14.2875 14.694 13.9561 14.7978 13.727 15.0893C13.498 15.3807 13.457 15.7545 13.6442 16.0455L14.1223 16.8564C15.7651 19.5598 15.8899 19.7469 15.9937 19.8507C16.1808 19.9969 16.4094 20.0174 16.6589 19.9131C17.3661 19.6207 18.8842 17.6674 18.988 16.8983C19.0289 16.6464 18.9666 16.4173 18.7794 16.2721V16.2745ZM14.3299 13.1969C14.7685 13.1136 18.3427 12.2612 18.6342 12.0531C18.8213 11.9283 18.9266 11.6997 18.9042 11.4293V11.4088C18.8213 10.6183 17.4694 8.58213 16.8042 8.24781C16.5756 8.144 16.3261 8.144 16.1389 8.26876C16.0142 8.3521 15.9308 8.47686 14.2465 10.8054L13.477 11.863C13.2694 12.1125 13.2694 12.4663 13.477 12.7783C13.6851 13.1111 13.8932 13.2763 14.3299 13.1945V13.1969Z" fill="#D32323"/>
</svg>
