<svg width="24" height="24" viewBox="0 0 24 24" fill="none" xmlns="http://www.w3.org/2000/svg">
<g clip-path="url(#clip0_210_926)">
<path d="M21 12C21 7.02981 16.9702 3 12 3C7.02981 3 3 7.02981 3 12C3 16.4918 6.29068 20.2153 10.5939 20.8912V14.6022H8.30811V12H10.5939V10.0167C10.5939 7.76136 11.938 6.5147 13.9934 6.5147C14.9781 6.5147 16.0083 6.69062 16.0083 6.69062V8.9055H14.873C13.7554 8.9055 13.4061 9.59907 13.4061 10.3116V12H15.902L15.5033 14.6022H13.4061V20.8912C17.7093 20.2166 21 16.493 21 12Z" fill="black"/>
<path d="M15.5035 14.6021L15.9022 12H13.4064V10.3116C13.4064 9.60029 13.7544 8.90545 14.8733 8.90545H16.0085V6.69057C16.0085 6.69057 14.9783 6.51465 13.9936 6.51465C11.9382 6.51465 10.5941 7.76004 10.5941 10.0167V12H8.30835V14.6021H10.5941V20.8911C11.0523 20.9632 11.5218 21 12.0002 21C12.4787 21 12.9482 20.962 13.4064 20.8911V14.6021H15.5035Z" fill="#FEFEFE"/>
</g>
<defs>
<clipPath id="clip0_210_926">
<rect width="18" height="18" fill="white" transform="translate(3 3)"/>
</clipPath>
</defs>
</svg>
