<svg width="878" height="126" viewBox="0 0 878 126" fill="none" xmlns="http://www.w3.org/2000/svg">
<mask id="path-1-outside-1_204_1403" maskUnits="userSpaceOnUse" x="-0.415527" y="0" width="878" height="126" fill="black">
<rect fill="white" x="-0.415527" width="878" height="126"/>
<path d="M5.16447 44.6L2.58447 2.72H10.3245L11.5245 27.8L11.8845 35.72H12.4245L16.0245 11.84H24.1245L27.7245 35.72H28.2645L29.8245 2.72H37.2645L34.6845 44.6H23.2845L20.2245 21.5H19.6245L16.5645 44.6H5.16447ZM61.901 45.32C56.301 45.32 52.161 43.42 49.481 39.62C46.841 35.82 45.521 30.5 45.521 23.66C45.521 16.82 46.841 11.5 49.481 7.7C52.161 3.9 56.301 2 61.901 2C67.501 2 71.621 3.9 74.261 7.7C76.941 11.5 78.281 16.82 78.281 23.66C78.281 30.5 76.941 35.82 74.261 39.62C71.621 43.42 67.501 45.32 61.901 45.32ZM61.901 38.06C64.461 38.06 66.221 37.12 67.181 35.24C68.181 33.32 68.681 30.66 68.681 27.26V20C68.681 16.64 68.181 14.02 67.181 12.14C66.221 10.22 64.461 9.26 61.901 9.26C59.341 9.26 57.561 10.22 56.561 12.14C55.601 14.02 55.121 16.64 55.121 20V27.32C55.121 30.68 55.601 33.32 56.561 35.24C57.561 37.12 59.341 38.06 61.901 38.06ZM99.3176 44.6H90.4376V2.72H106.638C108.678 2.72 110.498 3.04 112.098 3.68C113.698 4.28 115.038 5.16 116.118 6.32C117.238 7.48 118.078 8.88 118.638 10.52C119.198 12.16 119.478 14 119.478 16.04C119.478 19 118.838 21.54 117.558 23.66C116.278 25.78 114.458 27.18 112.098 27.86L120.318 44.6H110.478L103.458 29.06H99.3176V44.6ZM104.478 22.1C106.598 22.1 108.058 21.7 108.858 20.9C109.698 20.1 110.118 18.78 110.118 16.94V15.14C110.118 13.3 109.698 11.98 108.858 11.18C108.058 10.38 106.598 9.98 104.478 9.98H99.3176V22.1H104.478ZM144.654 27.14L140.934 32.36V44.6H131.934V2.72H140.934V20.24H141.414L145.974 13.28L153.354 2.72H163.434L150.894 20.42L164.034 44.6H153.894L144.654 27.14ZM215.047 44.6L212.467 2.72H220.207L221.407 27.8L221.767 35.72H222.307L225.907 11.84H234.007L237.607 35.72H238.147L239.707 2.72H247.147L244.567 44.6H233.167L230.107 21.5H229.507L226.447 44.6H215.047ZM258.284 44.6V37.94H267.284V9.38H258.284V2.72H285.284V9.38H276.284V37.94H285.284V44.6H258.284ZM318.26 10.1V44.6H309.26V10.1H297.2V2.72H330.32V10.1H318.26ZM361.017 27.08H350.457V44.6H341.397V2.72H350.457V19.7H361.017V2.72H370.077V44.6H361.017V27.08ZM447.79 44.6L445.15 34.52H433.69L431.11 44.6H421.99L433.33 2.72H446.05L457.39 44.6H447.79ZM439.69 11.42H439.21L435.13 27.26H443.77L439.69 11.42ZM528.143 10.1V44.6H519.143V10.1H507.083V2.72H540.203V10.1H528.143ZM565.62 45.32C560.02 45.32 555.88 43.42 553.2 39.62C550.56 35.82 549.24 30.5 549.24 23.66C549.24 16.82 550.56 11.5 553.2 7.7C555.88 3.9 560.02 2 565.62 2C571.22 2 575.34 3.9 577.98 7.7C580.66 11.5 582 16.82 582 23.66C582 30.5 580.66 35.82 577.98 39.62C575.34 43.42 571.22 45.32 565.62 45.32ZM565.62 38.06C568.18 38.06 569.94 37.12 570.9 35.24C571.9 33.32 572.4 30.66 572.4 27.26V20C572.4 16.64 571.9 14.02 570.9 12.14C569.94 10.22 568.18 9.26 565.62 9.26C563.06 9.26 561.28 10.22 560.28 12.14C559.32 14.02 558.84 16.64 558.84 20V27.32C558.84 30.68 559.32 33.32 560.28 35.24C561.28 37.12 563.06 38.06 565.62 38.06ZM594.156 44.6V2.72H610.356C612.396 2.72 614.216 3.04 615.816 3.68C617.416 4.28 618.756 5.16 619.836 6.32C620.956 7.48 621.796 8.88 622.356 10.52C622.916 12.16 623.196 14 623.196 16.04C623.196 18.08 622.916 19.92 622.356 21.56C621.796 23.2 620.956 24.6 619.836 25.76C618.756 26.92 617.416 27.82 615.816 28.46C614.216 29.06 612.396 29.36 610.356 29.36H603.216V44.6H594.156ZM603.216 22.1H608.076C610.196 22.1 611.656 21.7 612.456 20.9C613.296 20.1 613.716 18.78 613.716 16.94V15.14C613.716 13.3 613.296 11.98 612.456 11.18C611.656 10.38 610.196 9.98 608.076 9.98H603.216V22.1ZM639.973 30.56V22.04H659.173V30.56H639.973ZM686.99 44.6H678.109V2.72H694.309C696.349 2.72 698.169 3.04 699.769 3.68C701.369 4.28 702.709 5.16 703.789 6.32C704.909 7.48 705.749 8.88 706.309 10.52C706.869 12.16 707.149 14 707.149 16.04C707.149 19 706.509 21.54 705.229 23.66C703.949 25.78 702.129 27.18 699.769 27.86L707.99 44.6H698.149L691.129 29.06H686.99V44.6ZM692.149 22.1C694.269 22.1 695.729 21.7 696.529 20.9C697.369 20.1 697.789 18.78 697.789 16.94V15.14C697.789 13.3 697.369 11.98 696.529 11.18C695.729 10.38 694.269 9.98 692.149 9.98H686.99V22.1H692.149ZM741.626 44.6L738.986 34.52H727.526L724.946 44.6H715.826L727.166 2.72H739.886L751.226 44.6H741.626ZM733.526 11.42H733.046L728.966 27.26H737.606L733.526 11.42ZM780.003 10.1V44.6H771.003V10.1H758.943V2.72H792.063V10.1H780.003ZM804.279 44.6V2.72H831.039V10.1H813.279V19.7H830.439V27.08H813.279V37.22H831.039V44.6H804.279ZM845.296 2.72H858.796C864.436 2.72 868.616 4.52 871.336 8.12C874.056 11.72 875.416 16.9 875.416 23.66C875.416 30.42 874.056 35.6 871.336 39.2C868.616 42.8 864.436 44.6 858.796 44.6H845.296V2.72ZM858.196 37.52C860.876 37.52 862.836 36.66 864.076 34.94C865.316 33.22 865.936 30.72 865.936 27.44V19.82C865.936 16.58 865.316 14.1 864.076 12.38C862.836 10.66 860.876 9.8 858.196 9.8H854.176V37.52H858.196ZM81.3293 122.6H72.4493V80.72H88.6493C90.6893 80.72 92.5093 81.04 94.1093 81.68C95.7093 82.28 97.0493 83.16 98.1293 84.32C99.2493 85.48 100.089 86.88 100.649 88.52C101.209 90.16 101.489 92 101.489 94.04C101.489 97 100.849 99.54 99.5693 101.66C98.2893 103.78 96.4693 105.18 94.1093 105.86L102.329 122.6H92.4893L85.4693 107.06H81.3293V122.6ZM86.4893 100.1C88.6093 100.1 90.0693 99.7 90.8693 98.9C91.7093 98.1 92.1293 96.78 92.1293 94.94V93.14C92.1293 91.3 91.7093 89.98 90.8693 89.18C90.0693 88.38 88.6093 87.98 86.4893 87.98H81.3293V100.1H86.4893ZM127.866 123.32C122.266 123.32 118.126 121.42 115.446 117.62C112.806 113.82 111.486 108.5 111.486 101.66C111.486 94.82 112.806 89.5 115.446 85.7C118.126 81.9 122.266 80 127.866 80C133.466 80 137.586 81.9 140.226 85.7C142.906 89.5 144.246 94.82 144.246 101.66C144.246 108.5 142.906 113.82 140.226 117.62C137.586 121.42 133.466 123.32 127.866 123.32ZM127.866 116.06C130.426 116.06 132.186 115.12 133.146 113.24C134.146 111.32 134.646 108.66 134.646 105.26V98C134.646 94.64 134.146 92.02 133.146 90.14C132.186 88.22 130.426 87.26 127.866 87.26C125.306 87.26 123.526 88.22 122.526 90.14C121.566 92.02 121.086 94.64 121.086 98V105.32C121.086 108.68 121.566 111.32 122.526 113.24C123.526 115.12 125.306 116.06 127.866 116.06ZM169.842 123.32C164.242 123.32 160.102 121.42 157.422 117.62C154.782 113.82 153.462 108.5 153.462 101.66C153.462 94.82 154.782 89.5 157.422 85.7C160.102 81.9 164.242 80 169.842 80C175.442 80 179.562 81.9 182.202 85.7C184.882 89.5 186.222 94.82 186.222 101.66C186.222 108.5 184.882 113.82 182.202 117.62C179.562 121.42 175.442 123.32 169.842 123.32ZM169.842 116.06C172.402 116.06 174.162 115.12 175.122 113.24C176.122 111.32 176.622 108.66 176.622 105.26V98C176.622 94.64 176.122 92.02 175.122 90.14C174.162 88.22 172.402 87.26 169.842 87.26C167.282 87.26 165.502 88.22 164.502 90.14C163.542 92.02 163.062 94.64 163.062 98V105.32C163.062 108.68 163.542 111.32 164.502 113.24C165.502 115.12 167.282 116.06 169.842 116.06ZM198.619 122.6V80.72H226.399V88.1H207.619V97.7H224.419V105.08H207.619V122.6H198.619ZM240.296 122.6V115.94H249.296V87.38H240.296V80.72H267.296V87.38H258.296V115.94H267.296V122.6H240.296ZM289.772 94.76H289.112V122.6H281.432V80.72H292.232L301.772 108.56H302.432V80.72H310.112V122.6H299.312L289.772 94.76ZM344.409 116.66H343.869C343.509 117.54 343.069 118.38 342.549 119.18C342.029 119.98 341.389 120.7 340.629 121.34C339.869 121.94 338.969 122.42 337.929 122.78C336.929 123.14 335.789 123.32 334.509 123.32C332.469 123.32 330.649 122.84 329.049 121.88C327.489 120.92 326.169 119.52 325.089 117.68C324.009 115.84 323.189 113.6 322.629 110.96C322.109 108.32 321.849 105.34 321.849 102.02C321.849 94.9 323.149 89.46 325.749 85.7C328.349 81.9 332.369 80 337.809 80C339.969 80 341.869 80.3 343.509 80.9C345.149 81.46 346.549 82.28 347.709 83.36C348.909 84.4 349.889 85.66 350.649 87.14C351.409 88.62 352.009 90.26 352.449 92.06L344.049 94.1C343.809 93.22 343.529 92.38 343.209 91.58C342.929 90.74 342.549 90 342.069 89.36C341.589 88.72 340.989 88.22 340.269 87.86C339.549 87.46 338.669 87.26 337.629 87.26C335.349 87.26 333.729 88.2 332.769 90.08C331.849 91.96 331.389 94.6 331.389 98V104.84C331.389 108.24 331.889 110.96 332.889 113C333.929 115.04 335.749 116.06 338.349 116.06C340.389 116.06 341.909 115.46 342.909 114.26C343.909 113.06 344.409 111.52 344.409 109.64V106.58H337.269V100.22H352.449V122.6H344.409V116.66ZM422.662 123.32C417.062 123.32 412.902 121.44 410.182 117.68C407.502 113.88 406.162 108.54 406.162 101.66C406.162 94.78 407.502 89.46 410.182 85.7C412.902 81.9 417.062 80 422.662 80C424.822 80 426.722 80.3 428.362 80.9C430.042 81.46 431.482 82.26 432.682 83.3C433.882 84.34 434.862 85.6 435.622 87.08C436.422 88.56 437.042 90.22 437.482 92.06L429.082 94.1C428.842 93.1 428.562 92.18 428.242 91.34C427.922 90.5 427.502 89.78 426.982 89.18C426.502 88.58 425.882 88.12 425.122 87.8C424.402 87.44 423.522 87.26 422.482 87.26C420.042 87.26 418.302 88.22 417.262 90.14C416.262 92.02 415.762 94.64 415.762 98V105.32C415.762 108.68 416.262 111.32 417.262 113.24C418.302 115.12 420.042 116.06 422.482 116.06C424.562 116.06 426.062 115.42 426.982 114.14C427.942 112.86 428.642 111.22 429.082 109.22L437.482 111.26C437.042 113.1 436.422 114.76 435.622 116.24C434.862 117.72 433.882 119 432.682 120.08C431.482 121.12 430.042 121.92 428.362 122.48C426.722 123.04 424.822 123.32 422.662 123.32ZM463.678 123.32C458.078 123.32 453.938 121.42 451.258 117.62C448.618 113.82 447.298 108.5 447.298 101.66C447.298 94.82 448.618 89.5 451.258 85.7C453.938 81.9 458.078 80 463.678 80C469.278 80 473.398 81.9 476.038 85.7C478.718 89.5 480.058 94.82 480.058 101.66C480.058 108.5 478.718 113.82 476.038 117.62C473.398 121.42 469.278 123.32 463.678 123.32ZM463.678 116.06C466.238 116.06 467.998 115.12 468.958 113.24C469.958 111.32 470.458 108.66 470.458 105.26V98C470.458 94.64 469.958 92.02 468.958 90.14C467.998 88.22 466.238 87.26 463.678 87.26C461.118 87.26 459.338 88.22 458.338 90.14C457.378 92.02 456.898 94.64 456.898 98V105.32C456.898 108.68 457.378 111.32 458.338 113.24C459.338 115.12 461.118 116.06 463.678 116.06ZM513.515 103.94L513.995 92.24H513.455L505.655 113.78L497.855 92.24H497.315L497.795 103.94V122.6H489.995V80.72H500.615L505.775 94.82H506.255L511.415 80.72H521.315V122.6H513.515V103.94ZM534.192 122.6V80.72H550.391C552.431 80.72 554.252 81.04 555.852 81.68C557.452 82.28 558.792 83.16 559.872 84.32C560.992 85.48 561.831 86.88 562.391 88.52C562.951 90.16 563.232 92 563.232 94.04C563.232 96.08 562.951 97.92 562.391 99.56C561.831 101.2 560.992 102.6 559.872 103.76C558.792 104.92 557.452 105.82 555.852 106.46C554.252 107.06 552.431 107.36 550.391 107.36H543.252V122.6H534.192ZM543.252 100.1H548.112C550.232 100.1 551.692 99.7 552.492 98.9C553.332 98.1 553.752 96.78 553.752 94.94V93.14C553.752 91.3 553.332 89.98 552.492 89.18C551.692 88.38 550.232 87.98 548.112 87.98H543.252V100.1ZM597.708 122.6L595.068 112.52H583.608L581.028 122.6H571.908L583.248 80.72H595.968L607.308 122.6H597.708ZM589.608 89.42H589.128L585.048 105.26H593.688L589.608 89.42ZM625.585 94.76H624.925V122.6H617.245V80.72H628.045L637.585 108.56H638.245V80.72H645.925V122.6H635.125L625.585 94.76ZM669.061 122.6V107.78L655.801 80.72H665.821L670.261 90.44L673.501 98.66H673.981L677.221 90.44L681.661 80.72H691.321L678.061 107.78V122.6H669.061ZM744.014 122.6V115.94H753.014V87.38H744.014V80.72H771.014V87.38H762.014V115.94H771.014V122.6H744.014ZM793.491 94.76H792.831V122.6H785.151V80.72H795.951L805.491 108.56H806.151V80.72H813.831V122.6H803.031L793.491 94.76Z"/>
</mask>
<path d="M5.16447 44.6L2.58447 2.72H10.3245L11.5245 27.8L11.8845 35.72H12.4245L16.0245 11.84H24.1245L27.7245 35.72H28.2645L29.8245 2.72H37.2645L34.6845 44.6H23.2845L20.2245 21.5H19.6245L16.5645 44.6H5.16447ZM61.901 45.32C56.301 45.32 52.161 43.42 49.481 39.62C46.841 35.82 45.521 30.5 45.521 23.66C45.521 16.82 46.841 11.5 49.481 7.7C52.161 3.9 56.301 2 61.901 2C67.501 2 71.621 3.9 74.261 7.7C76.941 11.5 78.281 16.82 78.281 23.66C78.281 30.5 76.941 35.82 74.261 39.62C71.621 43.42 67.501 45.32 61.901 45.32ZM61.901 38.06C64.461 38.06 66.221 37.12 67.181 35.24C68.181 33.32 68.681 30.66 68.681 27.26V20C68.681 16.64 68.181 14.02 67.181 12.14C66.221 10.22 64.461 9.26 61.901 9.26C59.341 9.26 57.561 10.22 56.561 12.14C55.601 14.02 55.121 16.64 55.121 20V27.32C55.121 30.68 55.601 33.32 56.561 35.24C57.561 37.12 59.341 38.06 61.901 38.06ZM99.3176 44.6H90.4376V2.72H106.638C108.678 2.72 110.498 3.04 112.098 3.68C113.698 4.28 115.038 5.16 116.118 6.32C117.238 7.48 118.078 8.88 118.638 10.52C119.198 12.16 119.478 14 119.478 16.04C119.478 19 118.838 21.54 117.558 23.66C116.278 25.78 114.458 27.18 112.098 27.86L120.318 44.6H110.478L103.458 29.06H99.3176V44.6ZM104.478 22.1C106.598 22.1 108.058 21.7 108.858 20.9C109.698 20.1 110.118 18.78 110.118 16.94V15.14C110.118 13.3 109.698 11.98 108.858 11.18C108.058 10.38 106.598 9.98 104.478 9.98H99.3176V22.1H104.478ZM144.654 27.14L140.934 32.36V44.6H131.934V2.72H140.934V20.24H141.414L145.974 13.28L153.354 2.72H163.434L150.894 20.42L164.034 44.6H153.894L144.654 27.14ZM215.047 44.6L212.467 2.72H220.207L221.407 27.8L221.767 35.72H222.307L225.907 11.84H234.007L237.607 35.72H238.147L239.707 2.72H247.147L244.567 44.6H233.167L230.107 21.5H229.507L226.447 44.6H215.047ZM258.284 44.6V37.94H267.284V9.38H258.284V2.72H285.284V9.38H276.284V37.94H285.284V44.6H258.284ZM318.26 10.1V44.6H309.26V10.1H297.2V2.72H330.32V10.1H318.26ZM361.017 27.08H350.457V44.6H341.397V2.72H350.457V19.7H361.017V2.72H370.077V44.6H361.017V27.08ZM447.79 44.6L445.15 34.52H433.69L431.11 44.6H421.99L433.33 2.72H446.05L457.39 44.6H447.79ZM439.69 11.42H439.21L435.13 27.26H443.77L439.69 11.42ZM528.143 10.1V44.6H519.143V10.1H507.083V2.72H540.203V10.1H528.143ZM565.62 45.32C560.02 45.32 555.88 43.42 553.2 39.62C550.56 35.82 549.24 30.5 549.24 23.66C549.24 16.82 550.56 11.5 553.2 7.7C555.88 3.9 560.02 2 565.62 2C571.22 2 575.34 3.9 577.98 7.7C580.66 11.5 582 16.82 582 23.66C582 30.5 580.66 35.82 577.98 39.62C575.34 43.42 571.22 45.32 565.62 45.32ZM565.62 38.06C568.18 38.06 569.94 37.12 570.9 35.24C571.9 33.32 572.4 30.66 572.4 27.26V20C572.4 16.64 571.9 14.02 570.9 12.14C569.94 10.22 568.18 9.26 565.62 9.26C563.06 9.26 561.28 10.22 560.28 12.14C559.32 14.02 558.84 16.64 558.84 20V27.32C558.84 30.68 559.32 33.32 560.28 35.24C561.28 37.12 563.06 38.06 565.62 38.06ZM594.156 44.6V2.72H610.356C612.396 2.72 614.216 3.04 615.816 3.68C617.416 4.28 618.756 5.16 619.836 6.32C620.956 7.48 621.796 8.88 622.356 10.52C622.916 12.16 623.196 14 623.196 16.04C623.196 18.08 622.916 19.92 622.356 21.56C621.796 23.2 620.956 24.6 619.836 25.76C618.756 26.92 617.416 27.82 615.816 28.46C614.216 29.06 612.396 29.36 610.356 29.36H603.216V44.6H594.156ZM603.216 22.1H608.076C610.196 22.1 611.656 21.7 612.456 20.9C613.296 20.1 613.716 18.78 613.716 16.94V15.14C613.716 13.3 613.296 11.98 612.456 11.18C611.656 10.38 610.196 9.98 608.076 9.98H603.216V22.1ZM639.973 30.56V22.04H659.173V30.56H639.973ZM686.99 44.6H678.109V2.72H694.309C696.349 2.72 698.169 3.04 699.769 3.68C701.369 4.28 702.709 5.16 703.789 6.32C704.909 7.48 705.749 8.88 706.309 10.52C706.869 12.16 707.149 14 707.149 16.04C707.149 19 706.509 21.54 705.229 23.66C703.949 25.78 702.129 27.18 699.769 27.86L707.99 44.6H698.149L691.129 29.06H686.99V44.6ZM692.149 22.1C694.269 22.1 695.729 21.7 696.529 20.9C697.369 20.1 697.789 18.78 697.789 16.94V15.14C697.789 13.3 697.369 11.98 696.529 11.18C695.729 10.38 694.269 9.98 692.149 9.98H686.99V22.1H692.149ZM741.626 44.6L738.986 34.52H727.526L724.946 44.6H715.826L727.166 2.72H739.886L751.226 44.6H741.626ZM733.526 11.42H733.046L728.966 27.26H737.606L733.526 11.42ZM780.003 10.1V44.6H771.003V10.1H758.943V2.72H792.063V10.1H780.003ZM804.279 44.6V2.72H831.039V10.1H813.279V19.7H830.439V27.08H813.279V37.22H831.039V44.6H804.279ZM845.296 2.72H858.796C864.436 2.72 868.616 4.52 871.336 8.12C874.056 11.72 875.416 16.9 875.416 23.66C875.416 30.42 874.056 35.6 871.336 39.2C868.616 42.8 864.436 44.6 858.796 44.6H845.296V2.72ZM858.196 37.52C860.876 37.52 862.836 36.66 864.076 34.94C865.316 33.22 865.936 30.72 865.936 27.44V19.82C865.936 16.58 865.316 14.1 864.076 12.38C862.836 10.66 860.876 9.8 858.196 9.8H854.176V37.52H858.196ZM81.3293 122.6H72.4493V80.72H88.6493C90.6893 80.72 92.5093 81.04 94.1093 81.68C95.7093 82.28 97.0493 83.16 98.1293 84.32C99.2493 85.48 100.089 86.88 100.649 88.52C101.209 90.16 101.489 92 101.489 94.04C101.489 97 100.849 99.54 99.5693 101.66C98.2893 103.78 96.4693 105.18 94.1093 105.86L102.329 122.6H92.4893L85.4693 107.06H81.3293V122.6ZM86.4893 100.1C88.6093 100.1 90.0693 99.7 90.8693 98.9C91.7093 98.1 92.1293 96.78 92.1293 94.94V93.14C92.1293 91.3 91.7093 89.98 90.8693 89.18C90.0693 88.38 88.6093 87.98 86.4893 87.98H81.3293V100.1H86.4893ZM127.866 123.32C122.266 123.32 118.126 121.42 115.446 117.62C112.806 113.82 111.486 108.5 111.486 101.66C111.486 94.82 112.806 89.5 115.446 85.7C118.126 81.9 122.266 80 127.866 80C133.466 80 137.586 81.9 140.226 85.7C142.906 89.5 144.246 94.82 144.246 101.66C144.246 108.5 142.906 113.82 140.226 117.62C137.586 121.42 133.466 123.32 127.866 123.32ZM127.866 116.06C130.426 116.06 132.186 115.12 133.146 113.24C134.146 111.32 134.646 108.66 134.646 105.26V98C134.646 94.64 134.146 92.02 133.146 90.14C132.186 88.22 130.426 87.26 127.866 87.26C125.306 87.26 123.526 88.22 122.526 90.14C121.566 92.02 121.086 94.64 121.086 98V105.32C121.086 108.68 121.566 111.32 122.526 113.24C123.526 115.12 125.306 116.06 127.866 116.06ZM169.842 123.32C164.242 123.32 160.102 121.42 157.422 117.62C154.782 113.82 153.462 108.5 153.462 101.66C153.462 94.82 154.782 89.5 157.422 85.7C160.102 81.9 164.242 80 169.842 80C175.442 80 179.562 81.9 182.202 85.7C184.882 89.5 186.222 94.82 186.222 101.66C186.222 108.5 184.882 113.82 182.202 117.62C179.562 121.42 175.442 123.32 169.842 123.32ZM169.842 116.06C172.402 116.06 174.162 115.12 175.122 113.24C176.122 111.32 176.622 108.66 176.622 105.26V98C176.622 94.64 176.122 92.02 175.122 90.14C174.162 88.22 172.402 87.26 169.842 87.26C167.282 87.26 165.502 88.22 164.502 90.14C163.542 92.02 163.062 94.64 163.062 98V105.32C163.062 108.68 163.542 111.32 164.502 113.24C165.502 115.12 167.282 116.06 169.842 116.06ZM198.619 122.6V80.72H226.399V88.1H207.619V97.7H224.419V105.08H207.619V122.6H198.619ZM240.296 122.6V115.94H249.296V87.38H240.296V80.72H267.296V87.38H258.296V115.94H267.296V122.6H240.296ZM289.772 94.76H289.112V122.6H281.432V80.72H292.232L301.772 108.56H302.432V80.72H310.112V122.6H299.312L289.772 94.76ZM344.409 116.66H343.869C343.509 117.54 343.069 118.38 342.549 119.18C342.029 119.98 341.389 120.7 340.629 121.34C339.869 121.94 338.969 122.42 337.929 122.78C336.929 123.14 335.789 123.32 334.509 123.32C332.469 123.32 330.649 122.84 329.049 121.88C327.489 120.92 326.169 119.52 325.089 117.68C324.009 115.84 323.189 113.6 322.629 110.96C322.109 108.32 321.849 105.34 321.849 102.02C321.849 94.9 323.149 89.46 325.749 85.7C328.349 81.9 332.369 80 337.809 80C339.969 80 341.869 80.3 343.509 80.9C345.149 81.46 346.549 82.28 347.709 83.36C348.909 84.4 349.889 85.66 350.649 87.14C351.409 88.62 352.009 90.26 352.449 92.06L344.049 94.1C343.809 93.22 343.529 92.38 343.209 91.58C342.929 90.74 342.549 90 342.069 89.36C341.589 88.72 340.989 88.22 340.269 87.86C339.549 87.46 338.669 87.26 337.629 87.26C335.349 87.26 333.729 88.2 332.769 90.08C331.849 91.96 331.389 94.6 331.389 98V104.84C331.389 108.24 331.889 110.96 332.889 113C333.929 115.04 335.749 116.06 338.349 116.06C340.389 116.06 341.909 115.46 342.909 114.26C343.909 113.06 344.409 111.52 344.409 109.64V106.58H337.269V100.22H352.449V122.6H344.409V116.66ZM422.662 123.32C417.062 123.32 412.902 121.44 410.182 117.68C407.502 113.88 406.162 108.54 406.162 101.66C406.162 94.78 407.502 89.46 410.182 85.7C412.902 81.9 417.062 80 422.662 80C424.822 80 426.722 80.3 428.362 80.9C430.042 81.46 431.482 82.26 432.682 83.3C433.882 84.34 434.862 85.6 435.622 87.08C436.422 88.56 437.042 90.22 437.482 92.06L429.082 94.1C428.842 93.1 428.562 92.18 428.242 91.34C427.922 90.5 427.502 89.78 426.982 89.18C426.502 88.58 425.882 88.12 425.122 87.8C424.402 87.44 423.522 87.26 422.482 87.26C420.042 87.26 418.302 88.22 417.262 90.14C416.262 92.02 415.762 94.64 415.762 98V105.32C415.762 108.68 416.262 111.32 417.262 113.24C418.302 115.12 420.042 116.06 422.482 116.06C424.562 116.06 426.062 115.42 426.982 114.14C427.942 112.86 428.642 111.22 429.082 109.22L437.482 111.26C437.042 113.1 436.422 114.76 435.622 116.24C434.862 117.72 433.882 119 432.682 120.08C431.482 121.12 430.042 121.92 428.362 122.48C426.722 123.04 424.822 123.32 422.662 123.32ZM463.678 123.32C458.078 123.32 453.938 121.42 451.258 117.62C448.618 113.82 447.298 108.5 447.298 101.66C447.298 94.82 448.618 89.5 451.258 85.7C453.938 81.9 458.078 80 463.678 80C469.278 80 473.398 81.9 476.038 85.7C478.718 89.5 480.058 94.82 480.058 101.66C480.058 108.5 478.718 113.82 476.038 117.62C473.398 121.42 469.278 123.32 463.678 123.32ZM463.678 116.06C466.238 116.06 467.998 115.12 468.958 113.24C469.958 111.32 470.458 108.66 470.458 105.26V98C470.458 94.64 469.958 92.02 468.958 90.14C467.998 88.22 466.238 87.26 463.678 87.26C461.118 87.26 459.338 88.22 458.338 90.14C457.378 92.02 456.898 94.64 456.898 98V105.32C456.898 108.68 457.378 111.32 458.338 113.24C459.338 115.12 461.118 116.06 463.678 116.06ZM513.515 103.94L513.995 92.24H513.455L505.655 113.78L497.855 92.24H497.315L497.795 103.94V122.6H489.995V80.72H500.615L505.775 94.82H506.255L511.415 80.72H521.315V122.6H513.515V103.94ZM534.192 122.6V80.72H550.391C552.431 80.72 554.252 81.04 555.852 81.68C557.452 82.28 558.792 83.16 559.872 84.32C560.992 85.48 561.831 86.88 562.391 88.52C562.951 90.16 563.232 92 563.232 94.04C563.232 96.08 562.951 97.92 562.391 99.56C561.831 101.2 560.992 102.6 559.872 103.76C558.792 104.92 557.452 105.82 555.852 106.46C554.252 107.06 552.431 107.36 550.391 107.36H543.252V122.6H534.192ZM543.252 100.1H548.112C550.232 100.1 551.692 99.7 552.492 98.9C553.332 98.1 553.752 96.78 553.752 94.94V93.14C553.752 91.3 553.332 89.98 552.492 89.18C551.692 88.38 550.232 87.98 548.112 87.98H543.252V100.1ZM597.708 122.6L595.068 112.52H583.608L581.028 122.6H571.908L583.248 80.72H595.968L607.308 122.6H597.708ZM589.608 89.42H589.128L585.048 105.26H593.688L589.608 89.42ZM625.585 94.76H624.925V122.6H617.245V80.72H628.045L637.585 108.56H638.245V80.72H645.925V122.6H635.125L625.585 94.76ZM669.061 122.6V107.78L655.801 80.72H665.821L670.261 90.44L673.501 98.66H673.981L677.221 90.44L681.661 80.72H691.321L678.061 107.78V122.6H669.061ZM744.014 122.6V115.94H753.014V87.38H744.014V80.72H771.014V87.38H762.014V115.94H771.014V122.6H744.014ZM793.491 94.76H792.831V122.6H785.151V80.72H795.951L805.491 108.56H806.151V80.72H813.831V122.6H803.031L793.491 94.76Z" stroke="#0E0E0E" stroke-width="4" mask="url(#path-1-outside-1_204_1403)"/>
</svg>
