<svg width="1559" height="333" viewBox="0 0 1559 333" fill="none" xmlns="http://www.w3.org/2000/svg">
<path d="M55.5 62L52.5 20.12H58.38L59.88 44.48L60.54 55.22H61.02L65.76 30.26H72.42L77.16 55.22H77.64L78.3 44.48L79.86 20.12H85.5L82.5 62H73.5L69.24 37.76H68.76L64.5 62H55.5ZM104.977 62.72C102.337 62.72 100.037 62.24 98.0766 61.28C96.1566 60.28 94.5566 58.86 93.2766 57.02C92.0366 55.18 91.1166 52.92 90.5166 50.24C89.9166 47.56 89.6166 44.5 89.6166 41.06C89.6166 37.66 89.9166 34.62 90.5166 31.94C91.1166 29.22 92.0366 26.94 93.2766 25.1C94.5566 23.26 96.1566 21.86 98.0766 20.9C100.037 19.9 102.337 19.4 104.977 19.4C107.617 19.4 109.897 19.9 111.817 20.9C113.777 21.86 115.377 23.26 116.617 25.1C117.897 26.94 118.837 29.22 119.437 31.94C120.037 34.62 120.337 37.66 120.337 41.06C120.337 44.5 120.037 47.56 119.437 50.24C118.837 52.92 117.897 55.18 116.617 57.02C115.377 58.86 113.777 60.28 111.817 61.28C109.897 62.24 107.617 62.72 104.977 62.72ZM104.977 57.14C107.977 57.14 110.097 56.02 111.337 53.78C112.577 51.5 113.197 48.42 113.197 44.54V37.52C113.197 33.68 112.577 30.64 111.337 28.4C110.097 26.12 107.977 24.98 104.977 24.98C101.977 24.98 99.8566 26.12 98.6166 28.4C97.3766 30.64 96.7566 33.68 96.7566 37.52V44.6C96.7566 48.44 97.3766 51.5 98.6166 53.78C99.8566 56.02 101.977 57.14 104.977 57.14ZM134.653 62H127.993V20.12H143.653C147.653 20.12 150.693 21.24 152.773 23.48C154.893 25.72 155.953 28.8 155.953 32.72C155.953 35.92 155.173 38.56 153.613 40.64C152.053 42.72 149.813 44 146.893 44.48L156.553 62H149.113L140.233 45.08H134.653V62ZM142.693 39.68C146.853 39.68 148.933 37.78 148.933 33.98V31.4C148.933 27.6 146.853 25.7 142.693 25.7H134.653V39.68H142.693ZM175.37 42.74L170.33 49.04V62H163.61V20.12H170.33V40.16H170.63L175.73 33.2L185.99 20.12H193.73L179.93 37.76L194.27 62H186.59L175.37 42.74ZM235.383 62L232.383 20.12H238.263L239.763 44.48L240.423 55.22H240.903L245.643 30.26H252.303L257.043 55.22H257.523L258.183 44.48L259.743 20.12H265.383L262.383 62H253.383L249.123 37.76H248.643L244.383 62H235.383ZM271.659 62V56.9H281.499V25.22H271.659V20.12H298.059V25.22H288.219V56.9H298.059V62H271.659ZM324.196 25.76V62H317.476V25.76H304.336V20.12H337.336V25.76H324.196ZM363.773 43.58H349.853V62H343.133V20.12H349.853V37.94H363.773V20.12H370.492V62H363.773V43.58ZM438.486 62L435.306 50.84H421.986L418.806 62H411.966L424.206 20.12H433.386L445.626 62H438.486ZM428.886 26.9H428.406L423.246 45.26H434.046L428.886 26.9ZM504.079 25.76V62H497.359V25.76H484.219V20.12H517.219V25.76H504.079ZM536.695 62.72C534.055 62.72 531.755 62.24 529.795 61.28C527.875 60.28 526.275 58.86 524.995 57.02C523.755 55.18 522.835 52.92 522.235 50.24C521.635 47.56 521.335 44.5 521.335 41.06C521.335 37.66 521.635 34.62 522.235 31.94C522.835 29.22 523.755 26.94 524.995 25.1C526.275 23.26 527.875 21.86 529.795 20.9C531.755 19.9 534.055 19.4 536.695 19.4C539.335 19.4 541.615 19.9 543.535 20.9C545.495 21.86 547.095 23.26 548.335 25.1C549.615 26.94 550.555 29.22 551.155 31.94C551.755 34.62 552.055 37.66 552.055 41.06C552.055 44.5 551.755 47.56 551.155 50.24C550.555 52.92 549.615 55.18 548.335 57.02C547.095 58.86 545.495 60.28 543.535 61.28C541.615 62.24 539.335 62.72 536.695 62.72ZM536.695 57.14C539.695 57.14 541.815 56.02 543.055 53.78C544.295 51.5 544.915 48.42 544.915 44.54V37.52C544.915 33.68 544.295 30.64 543.055 28.4C541.815 26.12 539.695 24.98 536.695 24.98C533.695 24.98 531.575 26.12 530.335 28.4C529.095 30.64 528.475 33.68 528.475 37.52V44.6C528.475 48.44 529.095 51.5 530.335 53.78C531.575 56.02 533.695 57.14 536.695 57.14ZM559.712 62V20.12H575.372C579.372 20.12 582.412 21.24 584.492 23.48C586.612 25.72 587.672 28.8 587.672 32.72C587.672 36.64 586.612 39.72 584.492 41.96C582.412 44.2 579.372 45.32 575.372 45.32H566.432V62H559.712ZM566.432 39.74H574.352C578.512 39.74 580.592 37.82 580.592 33.98V31.4C580.592 27.6 578.512 25.7 574.352 25.7H566.432V39.74ZM599.588 47V40.46H617.708V47H599.588ZM638.325 62H631.665V20.12H647.325C651.325 20.12 654.365 21.24 656.445 23.48C658.565 25.72 659.625 28.8 659.625 32.72C659.625 35.92 658.845 38.56 657.285 40.64C655.725 42.72 653.485 44 650.565 44.48L660.225 62H652.785L643.905 45.08H638.325V62ZM646.365 39.68C650.525 39.68 652.605 37.78 652.605 33.98V31.4C652.605 27.6 650.525 25.7 646.365 25.7H638.325V39.68H646.365ZM690.322 62L687.142 50.84H673.822L670.642 62H663.802L676.042 20.12H685.222L697.462 62H690.322ZM680.722 26.9H680.242L675.082 45.26H685.882L680.722 26.9ZM719.938 25.76V62H713.218V25.76H700.078V20.12H733.078V25.76H719.938ZM739.715 62V20.12H765.935V25.76H746.435V37.94H765.215V43.58H746.435V56.36H765.935V62H739.715ZM775.451 20.12H787.931C793.291 20.12 797.251 21.9 799.811 25.46C802.411 29.02 803.711 34.22 803.711 41.06C803.711 47.9 802.411 53.1 799.811 56.66C797.251 60.22 793.291 62 787.931 62H775.451V20.12ZM787.511 56.48C790.591 56.48 792.871 55.46 794.351 53.42C795.871 51.34 796.631 48.38 796.631 44.54V37.58C796.631 33.74 795.871 30.8 794.351 28.76C792.871 26.68 790.591 25.64 787.511 25.64H782.111V56.48H787.511ZM854.184 62H847.524V20.12H863.184C867.184 20.12 870.224 21.24 872.304 23.48C874.424 25.72 875.484 28.8 875.484 32.72C875.484 35.92 874.704 38.56 873.144 40.64C871.584 42.72 869.344 44 866.424 44.48L876.084 62H868.644L859.764 45.08H854.184V62ZM862.224 39.68C866.384 39.68 868.464 37.78 868.464 33.98V31.4C868.464 27.6 866.384 25.7 862.224 25.7H854.184V39.68H862.224ZM896.461 62.72C893.821 62.72 891.521 62.24 889.561 61.28C887.641 60.28 886.041 58.86 884.761 57.02C883.521 55.18 882.601 52.92 882.001 50.24C881.401 47.56 881.101 44.5 881.101 41.06C881.101 37.66 881.401 34.62 882.001 31.94C882.601 29.22 883.521 26.94 884.761 25.1C886.041 23.26 887.641 21.86 889.561 20.9C891.521 19.9 893.821 19.4 896.461 19.4C899.101 19.4 901.381 19.9 903.301 20.9C905.261 21.86 906.861 23.26 908.101 25.1C909.381 26.94 910.321 29.22 910.921 31.94C911.521 34.62 911.821 37.66 911.821 41.06C911.821 44.5 911.521 47.56 910.921 50.24C910.321 52.92 909.381 55.18 908.101 57.02C906.861 58.86 905.261 60.28 903.301 61.28C901.381 62.24 899.101 62.72 896.461 62.72ZM896.461 57.14C899.461 57.14 901.581 56.02 902.821 53.78C904.061 51.5 904.681 48.42 904.681 44.54V37.52C904.681 33.68 904.061 30.64 902.821 28.4C901.581 26.12 899.461 24.98 896.461 24.98C893.461 24.98 891.341 26.12 890.101 28.4C888.861 30.64 888.241 33.68 888.241 37.52V44.6C888.241 48.44 888.861 51.5 890.101 53.78C891.341 56.02 893.461 57.14 896.461 57.14ZM932.438 62.72C929.798 62.72 927.498 62.24 925.538 61.28C923.618 60.28 922.018 58.86 920.738 57.02C919.498 55.18 918.578 52.92 917.978 50.24C917.378 47.56 917.078 44.5 917.078 41.06C917.078 37.66 917.378 34.62 917.978 31.94C918.578 29.22 919.498 26.94 920.738 25.1C922.018 23.26 923.618 21.86 925.538 20.9C927.498 19.9 929.798 19.4 932.438 19.4C935.078 19.4 937.358 19.9 939.278 20.9C941.238 21.86 942.838 23.26 944.078 25.1C945.358 26.94 946.298 29.22 946.898 31.94C947.498 34.62 947.798 37.66 947.798 41.06C947.798 44.5 947.498 47.56 946.898 50.24C946.298 52.92 945.358 55.18 944.078 57.02C942.838 58.86 941.238 60.28 939.278 61.28C937.358 62.24 935.078 62.72 932.438 62.72ZM932.438 57.14C935.438 57.14 937.558 56.02 938.798 53.78C940.038 51.5 940.658 48.42 940.658 44.54V37.52C940.658 33.68 940.038 30.64 938.798 28.4C937.558 26.12 935.438 24.98 932.438 24.98C929.438 24.98 927.318 26.12 926.078 28.4C924.838 30.64 924.218 33.68 924.218 37.52V44.6C924.218 48.44 924.838 51.5 926.078 53.78C927.318 56.02 929.438 57.14 932.438 57.14ZM955.574 62V20.12H982.514V25.76H962.294V37.94H980.654V43.58H962.294V62H955.574ZM991.191 62V56.9H1001.03V25.22H991.191V20.12H1017.59V25.22H1007.75V56.9H1017.59V62H991.191ZM1033.11 29.78H1032.57V62H1026.69V20.12H1035.33L1047.63 52.34H1048.17V20.12H1054.05V62H1045.41L1033.11 29.78ZM1084.14 56.24H1083.72C1083.36 57.08 1082.92 57.9 1082.4 58.7C1081.92 59.46 1081.3 60.14 1080.54 60.74C1079.82 61.34 1078.94 61.82 1077.9 62.18C1076.86 62.54 1075.66 62.72 1074.3 62.72C1069.94 62.72 1066.66 60.86 1064.46 57.14C1062.26 53.42 1061.16 48.16 1061.16 41.36C1061.16 34.24 1062.42 28.8 1064.94 25.04C1067.46 21.28 1071.32 19.4 1076.52 19.4C1078.56 19.4 1080.34 19.68 1081.86 20.24C1083.42 20.8 1084.74 21.56 1085.82 22.52C1086.9 23.44 1087.8 24.54 1088.52 25.82C1089.24 27.06 1089.82 28.38 1090.26 29.78L1084.2 31.82C1083.88 30.9 1083.52 30.04 1083.12 29.24C1082.72 28.4 1082.22 27.66 1081.62 27.02C1081.06 26.38 1080.36 25.88 1079.52 25.52C1078.72 25.16 1077.74 24.98 1076.58 24.98C1073.66 24.98 1071.54 26.12 1070.22 28.4C1068.94 30.64 1068.3 33.68 1068.3 37.52V44.18C1068.3 46.1 1068.44 47.86 1068.72 49.46C1069 51.06 1069.46 52.44 1070.1 53.6C1070.78 54.72 1071.64 55.6 1072.68 56.24C1073.76 56.88 1075.06 57.2 1076.58 57.2C1079.02 57.2 1080.88 56.48 1082.16 55.04C1083.48 53.56 1084.14 51.68 1084.14 49.4V45.62H1076.04V40.58H1090.26V62H1084.14V56.24ZM1149.5 62.72C1144.18 62.72 1140.22 60.84 1137.62 57.08C1135.06 53.32 1133.78 47.98 1133.78 41.06C1133.78 34.14 1135.06 28.8 1137.62 25.04C1140.22 21.28 1144.18 19.4 1149.5 19.4C1151.54 19.4 1153.3 19.68 1154.78 20.24C1156.3 20.76 1157.6 21.5 1158.68 22.46C1159.76 23.38 1160.66 24.48 1161.38 25.76C1162.14 27 1162.76 28.34 1163.24 29.78L1157.18 31.82C1156.86 30.86 1156.5 29.96 1156.1 29.12C1155.7 28.28 1155.2 27.56 1154.6 26.96C1154 26.36 1153.28 25.88 1152.44 25.52C1151.64 25.16 1150.64 24.98 1149.44 24.98C1146.48 24.98 1144.32 26.12 1142.96 28.4C1141.6 30.64 1140.92 33.68 1140.92 37.52V44.6C1140.92 48.44 1141.6 51.5 1142.96 53.78C1144.32 56.02 1146.48 57.14 1149.44 57.14C1150.64 57.14 1151.64 56.96 1152.44 56.6C1153.28 56.24 1154 55.76 1154.6 55.16C1155.2 54.56 1155.7 53.84 1156.1 53C1156.5 52.16 1156.86 51.26 1157.18 50.3L1163.24 52.34C1162.76 53.78 1162.14 55.14 1161.38 56.42C1160.66 57.66 1159.76 58.76 1158.68 59.72C1157.6 60.64 1156.3 61.38 1154.78 61.94C1153.3 62.46 1151.54 62.72 1149.5 62.72ZM1184.27 62.72C1181.63 62.72 1179.33 62.24 1177.37 61.28C1175.45 60.28 1173.85 58.86 1172.57 57.02C1171.33 55.18 1170.41 52.92 1169.81 50.24C1169.21 47.56 1168.91 44.5 1168.91 41.06C1168.91 37.66 1169.21 34.62 1169.81 31.94C1170.41 29.22 1171.33 26.94 1172.57 25.1C1173.85 23.26 1175.45 21.86 1177.37 20.9C1179.33 19.9 1181.63 19.4 1184.27 19.4C1186.91 19.4 1189.19 19.9 1191.11 20.9C1193.07 21.86 1194.67 23.26 1195.91 25.1C1197.19 26.94 1198.13 29.22 1198.73 31.94C1199.33 34.62 1199.63 37.66 1199.63 41.06C1199.63 44.5 1199.33 47.56 1198.73 50.24C1198.13 52.92 1197.19 55.18 1195.91 57.02C1194.67 58.86 1193.07 60.28 1191.11 61.28C1189.19 62.24 1186.91 62.72 1184.27 62.72ZM1184.27 57.14C1187.27 57.14 1189.39 56.02 1190.63 53.78C1191.87 51.5 1192.49 48.42 1192.49 44.54V37.52C1192.49 33.68 1191.87 30.64 1190.63 28.4C1189.39 26.12 1187.27 24.98 1184.27 24.98C1181.27 24.98 1179.15 26.12 1177.91 28.4C1176.67 30.64 1176.05 33.68 1176.05 37.52V44.6C1176.05 48.44 1176.67 51.5 1177.91 53.78C1179.15 56.02 1181.27 57.14 1184.27 57.14ZM1228.95 41.96L1229.13 29.36H1228.65L1220.25 50.9L1211.85 29.36H1211.37L1211.55 41.96V62H1205.61V20.12H1213.83L1220.25 36.74H1220.67L1227.15 20.12H1234.89V62H1228.95V41.96ZM1243.27 62V20.12H1258.93C1262.93 20.12 1265.97 21.24 1268.05 23.48C1270.17 25.72 1271.23 28.8 1271.23 32.72C1271.23 36.64 1270.17 39.72 1268.05 41.96C1265.97 44.2 1262.93 45.32 1258.93 45.32H1249.99V62H1243.27ZM1249.99 39.74H1257.91C1262.07 39.74 1264.15 37.82 1264.15 33.98V31.4C1264.15 27.6 1262.07 25.7 1257.91 25.7H1249.99V39.74ZM1301.92 62L1298.74 50.84H1285.42L1282.24 62H1275.4L1287.64 20.12H1296.82L1309.06 62H1301.92ZM1292.32 26.9H1291.84L1286.68 45.26H1297.48L1292.32 26.9ZM1320.92 29.78H1320.38V62H1314.5V20.12H1323.14L1335.44 52.34H1335.98V20.12H1341.86V62H1333.22L1320.92 29.78ZM1360.8 62V46.22L1346.88 20.12H1354.38L1359.72 30.56L1364.04 39.5H1364.4L1368.78 30.56L1374.12 20.12H1381.44L1367.52 46.22V62H1360.8ZM1422.91 62V56.9H1432.75V25.22H1422.91V20.12H1449.31V25.22H1439.47V56.9H1449.31V62H1422.91ZM1464.83 29.78H1464.29V62H1458.41V20.12H1467.05L1479.35 52.34H1479.89V20.12H1485.77V62H1477.13L1464.83 29.78Z" fill="#07070A"/>
<path d="M20.0078 278V138.4H46.2078V256.4H108.008V278H20.0078ZM209.73 278L199.93 242.6H158.53L148.93 278H122.53L161.73 138.4H198.13L237.53 278H209.73ZM180.13 164.2H178.53L163.13 221.2H195.53L180.13 164.2ZM295.252 216.8L280.652 236V278H254.452V138.4H280.652V201.2H281.852L298.052 178L327.452 138.4H357.052L313.252 197.2L359.052 278H329.452L295.252 216.8ZM376.373 278V138.4H464.573V160H402.573V196.4H462.373V218H402.573V256.4H464.573V278H376.373ZM521.295 278L483.095 138.4H511.895L529.295 209L539.495 253H540.895L551.295 209L568.895 138.4H596.295L558.095 278H521.295ZM615.217 278V258.4H646.617V158H615.217V138.4H704.017V158H672.617V258.4H704.017V278H615.217ZM739.539 278V138.4H765.739V256.4H827.539V278H739.539ZM859.461 278V138.4H885.661V256.4H947.461V278H859.461ZM975.983 278V138.4H1064.18V160H1002.18V196.4H1061.98V218H1002.18V256.4H1064.18V278H975.983ZM1126.5 245.4H1160.9L1134.7 307.6H1115.3L1126.5 245.4ZM1406.75 213.4L1407.95 173H1406.15L1379.15 244.8L1352.15 173H1350.35L1351.55 213.4V278H1328.75V138.4H1359.95L1379.35 189.8H1380.75L1400.35 138.4H1429.55V278H1406.75V213.4ZM1476.87 177.8H1474.87V278H1452.47V138.4H1484.67L1521.27 238.6H1523.27V138.4H1545.67V278H1513.47L1476.87 177.8Z" fill="#A3A3A3"/>
</svg>
